<svg width="21" height="22" viewBox="0 0 21 22" fill="none" xmlns="http://www.w3.org/2000/svg">
<g id="icon/editor/attach_file_24px">
<path id="icon/editor/attach_file_24px_2" d="M9.61146 6.63069L14.6357 11.6549C15.6012 12.6204 15.6012 14.1845 14.6357 15.15C13.6701 16.1155 12.1061 16.1155 11.1406 15.15L5.67949 9.6889C5.07658 9.08599 5.07658 8.10737 5.67949 7.50446C6.28239 6.90156 7.26102 6.90156 7.86392 7.50446L12.4512 12.0918C12.6915 12.3321 12.6915 12.7253 12.4512 12.9655C12.2109 13.2058 11.8177 13.2058 11.5775 12.9655L7.42703 8.81512L6.7717 9.47045L10.9221 13.6209C11.525 14.2238 12.5037 14.2238 13.1066 13.6209C13.7095 13.018 13.7095 12.0393 13.1066 11.4364L8.51925 6.84913C7.55373 5.88362 5.98968 5.88361 5.02416 6.84913C4.05864 7.81465 4.05864 9.37871 5.02416 10.3442L10.4852 15.8053C11.8134 17.1334 13.9629 17.1334 15.291 15.8053C16.6191 14.4772 16.6191 12.3277 15.291 10.9996L10.2668 5.97536L9.61146 6.63069Z" fill="white"/>
</g>
</svg>
