<svg width="50" height="50" viewBox="0 0 50 50" fill="none" xmlns="http://www.w3.org/2000/svg">
<path d="M25 50C38.8071 50 50 38.8071 50 25C50 11.1929 38.8071 0 25 0C11.1929 0 0 11.1929 0 25C0 38.8071 11.1929 50 25 50Z" fill="#4D76A1"/>
<path fill-rule="evenodd" clip-rule="evenodd" d="M24.0556 35.9643H26.0178C26.0178 35.9643 26.6105 35.8992 26.9131 35.573C27.1916 35.2735 27.1827 34.7111 27.1827 34.7111C27.1827 34.7111 27.1444 32.0782 28.3663 31.6905C29.5709 31.3086 31.1178 34.2352 32.7573 35.3604C33.9971 36.2121 34.9392 36.0253 34.9392 36.0253L39.3231 35.9643C39.3231 35.9643 41.6164 35.823 40.529 34.0199C40.4398 33.8724 39.8957 32.6861 37.2695 30.2484C34.5207 27.6971 34.8888 28.1097 38.2 23.6965C40.2166 21.0088 41.0228 19.3679 40.771 18.6651C40.5308 17.9957 39.0476 18.1727 39.0476 18.1727L34.1116 18.2034C34.1116 18.2034 33.7458 18.1535 33.4744 18.3157C33.2092 18.4748 33.0385 18.8456 33.0385 18.8456C33.0385 18.8456 32.2573 20.9254 31.2154 22.6942C29.0174 26.4265 28.1386 26.6235 27.7794 26.3918C26.9438 25.8516 27.1524 24.2219 27.1524 23.0641C27.1524 19.4472 27.701 17.9391 26.0842 17.5487C25.5476 17.4191 25.1528 17.3335 23.7806 17.3197C22.0194 17.3014 20.5287 17.325 19.6846 17.7386C19.1231 18.0136 18.69 18.6263 18.9538 18.6615C19.28 18.7052 20.0189 18.8607 20.4106 19.3942C20.9164 20.0823 20.8986 21.6278 20.8986 21.6278C20.8986 21.6278 21.1892 25.8855 20.2199 26.4145C19.5545 26.7772 18.6418 26.0366 16.6823 22.6505C15.6783 20.9161 14.9202 18.9989 14.9202 18.9989C14.9202 18.9989 14.774 18.6406 14.5133 18.449C14.1969 18.2168 13.7548 18.1428 13.7548 18.1428L9.06439 18.1735C9.06439 18.1735 8.36027 18.1932 8.10179 18.4993C7.87184 18.7716 8.08352 19.3349 8.08352 19.3349C8.08352 19.3349 11.7557 27.9261 15.9136 32.2556C19.7261 36.225 24.0556 35.9643 24.0556 35.9643Z" fill="white"/>
</svg>
