<svg width="1472" height="995" viewBox="0 0 1472 995" fill="none" xmlns="http://www.w3.org/2000/svg">
<g opacity="0.1">
<path d="M1327.07 967.123L1326.47 966.787L1199.52 883.287L1330.1 836.197L1327.81 966.451L1327.07 967.123ZM1203.35 883.758L1326.2 964.503L1328.42 838.548L1203.35 883.758Z" fill="#E6E7E8"/>
<path d="M1066 911.568L1065.39 909.418L1042.49 822.56L1204.5 883.757L1066.74 909.955L1066 911.568ZM1044.97 825.314L1066.8 908.209L1198.32 883.219L1044.97 825.314Z" fill="#E6E7E8"/>
<path d="M1066 911.635L1065.39 909.419L1013.61 748.331L1015.22 747.727L1044.5 823.635L1067.07 909.217L1066.94 909.553L1066 911.635ZM1024.22 775.605L1057.33 878.652L1042.96 824.105L1024.22 775.605Z" fill="#E6E7E8"/>
<path d="M786.316 889.803L785.174 888.593L906.947 706.95L1016.43 747.86L1014.95 748.733L786.316 889.803ZM907.551 708.965L788.666 886.309L1012.53 748.196L907.551 708.965Z" fill="#E6E7E8"/>
<path d="M785.778 890.743L700.073 724.08L701.349 723.946L908.962 706.95L908.021 708.428L785.778 890.743ZM702.693 725.491L785.912 887.384L905.536 708.898L702.693 725.491Z" fill="#E6E7E8"/>
<path d="M626.324 856.013L625.518 855.745L624.712 855.341L625.183 854.535L713.44 673.026L714.984 673.631L702.021 725.289L626.593 855.341L626.324 856.013ZM711.492 680.953L636.87 834.383L700.611 724.483L711.492 680.953Z" fill="#E6E7E8"/>
<path d="M626.325 856.081L625.25 855.543L625.116 855.274L557.479 684.917L558.621 684.849L715.656 672.422L626.325 856.081ZM559.897 686.394L625.989 852.856L712.835 674.303L559.897 686.394Z" fill="#E6E7E8"/>
<path d="M418.645 803.213L419.317 801.399H418.175L419.787 800.056L473.856 651.799L474.662 652.135L560.367 685.454L421.198 801.063L421.063 801.399H420.795L418.645 803.213ZM474.797 653.948L422.339 797.906L557.009 685.924L474.797 653.948Z" fill="#E6E7E8"/>
<path d="M421.063 801.399H419.989L419.72 800.929L307.887 594.027L475.334 652.269L475.065 653.075L421.063 801.399ZM311.514 597.117L420.392 798.51L473.252 653.411L311.514 597.117Z" fill="#E6E7E8"/>
<path d="M114.447 740.538L152.195 535.854L153.135 536.189L311.447 595.371L310.171 596.312L114.447 740.538ZM153.471 538.137L116.865 736.642L307.955 595.841L153.471 538.137Z" fill="#E6E7E8"/>
<path d="M1201.67 884.563L1200.33 883.891L1200.6 883.152L1263.87 726.969L1308.07 745.576L1201.67 884.563ZM1264.88 729.253L1204.56 878.114L1305.51 746.383L1264.88 729.253Z" fill="#E6E7E8"/>
<path d="M1199.05 885.301L1307.26 744.098L1330.3 837.942L1329.56 838.211L1199.05 885.301ZM1306.45 747.927L1203.89 881.741L1328.28 836.867L1306.45 747.927Z" fill="#E6E7E8"/>
<path d="M1201.41 885.839L1200.8 884.092L1200.4 883.891L1200.53 883.42L1134.98 699.426L1265.55 727.438L1202.35 883.487L1202.95 885.167L1201.88 884.629L1201.41 885.839ZM1137.6 701.777L1201.47 881.136L1263.2 728.782L1137.6 701.777Z" fill="#E6E7E8"/>
<path d="M1202.88 884.966L1201.2 884.294L1042.49 824.373L1136.66 698.889L1202.88 884.966ZM1045.11 823.567L1200.06 882.077L1136.05 702.382L1045.11 823.567Z" fill="#E6E7E8"/>
<path d="M1014.14 749.07L995.271 718.975L1136.19 699.83L1136.59 701.442L1014.14 749.07ZM998.092 720.251L1014.82 746.987L1129.4 702.45L998.092 720.251Z" fill="#E6E7E8"/>
<path d="M1043.56 825.65L1013.41 747.525L1138.81 698.755L1043.56 825.65ZM1015.56 748.532L1044.03 822.224L1133.9 702.517L1015.56 748.532Z" fill="#E6E7E8"/>
<path d="M1013.88 748.599L878.401 602.895L879.61 601.753L997.353 719.042L997.42 719.109L1015.15 747.524L1013.88 748.599ZM909.768 634.199L1009.11 741.008L996.077 720.184L909.768 634.199Z" fill="#E6E7E8"/>
<path d="M1014.21 748.801L906.544 708.562L906.41 708.159L878.2 602.559L879.61 601.753L1015.09 747.457L1014.21 748.801ZM907.954 707.286L1011.46 745.979L880.752 605.38L907.954 707.286Z" fill="#E6E7E8"/>
<path d="M701.82 725.491L700.611 724.417L785.98 566.15L880.819 602.157L701.82 725.491ZM786.786 568.233L703.768 722.133L877.192 602.627L786.786 568.233Z" fill="#E6E7E8"/>
<path d="M698.327 725.893L879.543 601.014L879.879 602.156L908.357 708.696L698.327 725.893ZM878.535 603.701L704.439 723.677L906.141 707.151L878.535 603.701Z" fill="#E6E7E8"/>
<path d="M701.081 727.17L662.46 556.073L663.602 556.14L787.793 566.418L787.188 567.56L701.081 727.17ZM664.542 557.954L701.685 722.401L785.039 567.896L664.542 557.954Z" fill="#E6E7E8"/>
<path d="M702.156 724.953H700.544L662.662 557.215L664.274 556.678L715.119 673.295L702.156 724.953ZM666.289 565.478L701.417 721.124L713.372 673.362L666.289 565.478Z" fill="#E6E7E8"/>
<path d="M557.747 688.142L557.815 686.529H556.941L557.882 685.387L563.792 539.885L564.733 540.019L665.08 556.477L559.561 685.992V686.529H559.158L557.747 688.142ZM565.404 541.766L559.628 683.104L661.923 557.552L565.404 541.766Z" fill="#E6E7E8"/>
<path d="M556.74 686.664L663.669 555.402L715.455 674.102L714.246 674.169L556.74 686.664ZM663.266 558.627L560.568 684.649L712.97 672.557L663.266 558.627Z" fill="#E6E7E8"/>
<path d="M559.494 686.461H558.285L478.558 590.602L565.472 539.279L559.494 686.461ZM481.11 591.072L557.949 683.439L563.725 542.302L481.11 591.072Z" fill="#E6E7E8"/>
<path d="M561.374 687.603L473.386 653.411L479.162 588.721L561.374 687.603ZM475.2 652.336L555.934 683.707L480.506 593.02L475.2 652.336Z" fill="#E6E7E8"/>
<path d="M309.164 596.446L308.76 595.64L362.427 459.676L481.647 591.676L309.164 596.446ZM363.031 462.766L310.977 594.699L478.02 589.997L363.031 462.766Z" fill="#E6E7E8"/>
<path d="M475.065 654.016L474.058 653.68L309.432 596.379L309.701 594.767L480.774 589.997L475.065 654.016ZM314.335 596.312L473.587 651.732L478.894 591.744L314.335 596.312Z" fill="#E6E7E8"/>
<path d="M308.962 596.043L204.854 414.87L363.837 460.684L310.44 595.909L309.701 595.64L308.962 596.043ZM208.414 417.624L309.567 593.625L361.621 461.759L208.414 417.624Z" fill="#E6E7E8"/>
<path d="M311.582 597.184L151.725 537.398L206.533 414.332L311.582 597.184ZM154.009 536.525L307.82 594.027L206.734 418.094L154.009 536.525Z" fill="#E6E7E8"/>
<path d="M1307.66 746.853H1306.32L1306.05 746.383L1225.59 595.64L1316.53 571.121L1307.66 746.853ZM1228.14 596.715L1306.19 742.89L1314.78 573.338L1228.14 596.715Z" fill="#E6E7E8"/>
<path d="M1308.67 747.659L1263.67 728.715L1263.6 728.312L1226.06 596.379L1227.6 595.774L1308.67 747.659ZM1265.08 727.506L1304.91 744.3L1229.82 603.567L1265.08 727.506Z" fill="#E6E7E8"/>
<path d="M1135.72 702.651L1114.69 527.994L1228.2 595.976L1135.72 702.651ZM1116.78 531.219L1136.93 698.688L1225.59 596.446L1116.78 531.219Z" fill="#E6E7E8"/>
<path d="M1265.62 729.253L1134.78 701.173L1227.26 594.498L1265.62 729.253ZM1137.87 700.098L1263.2 726.969L1226.46 597.857L1137.87 700.098Z" fill="#E6E7E8"/>
<path d="M1137.46 703.054L975.188 534.98L1116.44 528.732L1137.46 703.054ZM979.017 536.458L1135.18 698.217L1114.96 530.412L979.017 536.458Z" fill="#E6E7E8"/>
<path d="M995.943 720.587L975.994 533.368L1138.07 701.24L1136.46 701.442L995.943 720.587ZM978.211 538.07L997.487 718.639L1134.57 700.031L978.211 538.07Z" fill="#E6E7E8"/>
<path d="M879.408 603.097L879.274 602.828L878.334 601.955L935.493 502.736L978.614 535.787L879.61 603.097L879.341 602.895L879.408 603.097ZM935.963 505.222L881.625 599.604L975.658 535.72L935.963 505.222Z" fill="#E6E7E8"/>
<path d="M997.756 721.863L877.729 602.223L977.807 534.241L997.756 721.863ZM880.349 602.492L995.606 717.295L976.397 537.197L880.349 602.492Z" fill="#E6E7E8"/>
<path d="M878.871 603.366L878.401 602.963L756.225 488.562L937.038 503.207L936.366 504.349L879.61 602.963L878.871 603.366ZM760.927 490.645L878.804 601.015L934.284 504.685L760.927 490.645Z" fill="#E6E7E8"/>
<path d="M878.737 603.164L785.711 567.829L757.77 489.905L759.113 488.965L879.61 601.753L878.737 603.164ZM787.054 566.486L875.311 600.006L760.591 492.592L787.054 566.486Z" fill="#E6E7E8"/>
<path d="M663.602 557.954L662.662 557.551L662.393 490.04L761.33 488.696L663.602 557.954ZM664.072 491.719L664.341 555.402L755.956 490.51L664.072 491.719Z" fill="#E6E7E8"/>
<path d="M787.659 568.098L661.117 557.686L759.046 488.293L787.659 568.098ZM665.886 556.342L785.174 566.217L758.173 490.98L665.886 556.342Z" fill="#E6E7E8"/>
<path d="M664.341 559.97L662.93 557.686L662.662 557.551V557.216L616.585 483.591L664.072 490.107L664.341 556.745L665.684 558.895L664.341 558.29V559.97ZM619.877 485.808L662.595 554.058L662.326 491.652L619.877 485.808Z" fill="#E6E7E8"/>
<path d="M665.214 558.156L562.852 541.362L618.332 483.322L665.214 558.156ZM566.278 540.22L661.789 555.872L618.063 486.076L566.278 540.22Z" fill="#E6E7E8"/>
<path d="M480.371 591.543L479.767 590.804L479.095 590.535L525.306 462.162L620.212 484.33L480.371 591.543ZM526.313 464.11L481.58 588.385L616.317 485.136L526.313 464.11Z" fill="#E6E7E8"/>
<path d="M480.237 591.543L479.297 590.132L617.727 483.994L618.869 485.27L565.068 541.497L480.237 591.543ZM610.003 492.055L491.387 583.011L563.994 540.086L610.003 492.055Z" fill="#E6E7E8"/>
<path d="M479.767 592.147L479.162 591.408L369.009 444.494L526.985 462.497L480.439 591.475L479.767 592.147ZM372.703 446.577L479.565 589.124L524.634 463.908L372.703 446.577Z" fill="#E6E7E8"/>
<path d="M479.229 591.409L361.755 461.356L370.688 443.891L480.506 590.334L479.229 591.409ZM363.77 461.088L468.012 576.563L370.957 447.048L363.77 461.088Z" fill="#E6E7E8"/>
<path d="M370.688 446.308L206.936 417.154L205.928 418.027L205.794 416.28L201.025 344.402L371.293 444.763L370.688 446.308ZM207.473 415.541L366.39 443.823L202.906 347.492L207.473 415.541Z" fill="#E6E7E8"/>
<path d="M363.165 462.229L206.398 417.087L206.801 415.475L372.099 444.898L363.165 462.229ZM222.451 419.908L362.292 460.214L369.546 446.107L222.451 419.908Z" fill="#E6E7E8"/>
<path d="M1226.86 597.185L1225.38 596.178L1226.39 595.506L1399.21 475.06L1400.22 476.403L1305.51 551.237L1226.86 597.185ZM1377.05 492.525L1244.66 584.825L1304.57 549.826L1377.05 492.525Z" fill="#E6E7E8"/>
<path d="M1227.06 596.984L1226.39 595.506L1399.21 475.06L1400.35 476.336L1316.19 573.069L1315.92 573.136L1227.06 596.984ZM1394.51 480.366L1231.29 594.095L1315.12 571.524L1394.51 480.366Z" fill="#E6E7E8"/>
<path d="M1226.86 597.184L1226.06 596.647V596.177L1229.75 469.752L1306.32 550.766L1226.86 597.184ZM1231.29 473.85L1227.73 594.699L1303.57 550.363L1231.29 473.85Z" fill="#E6E7E8"/>
<path d="M1227.67 597.655L1113.95 529.539L1231.36 470.424L1227.67 597.655ZM1117.45 529.606L1226.06 594.699L1229.62 473.111L1117.45 529.606Z" fill="#E6E7E8"/>
<path d="M975.524 536.996L976.263 535.451L1003.73 408.824L1004.61 409.093L1233.85 471.902L975.524 536.996ZM1005.01 410.907L978.211 534.577L1227.2 471.768L1005.01 410.907Z" fill="#E6E7E8"/>
<path d="M977.136 536.593L976.867 534.913L1230.29 470.962L1230.89 472.507L1115.97 530.412H1115.77L977.136 536.593ZM1223.23 474.455L985.33 534.51L1115.5 528.733L1223.23 474.455Z" fill="#E6E7E8"/>
<path d="M977.002 537.869L976.33 536.056L931.798 415.677L1005.48 408.959L1005.21 410.101L977.875 536.056L977.002 537.869ZM934.149 417.087L976.867 532.697L1003.33 410.773L934.149 417.087Z" fill="#E6E7E8"/>
<path d="M978.882 538.205L934.821 504.415V504.012L932.134 416.415L933.746 416.079L978.882 538.205ZM936.5 503.542L975.255 533.301L933.948 421.52L936.5 503.542Z" fill="#E6E7E8"/>
<path d="M758.576 490.51L756.695 489.57L854.557 441.942L932.739 415.475L933.343 417.087L758.576 490.51ZM910.91 424.678L855.094 443.554L786.316 477.008L910.91 424.678Z" fill="#E6E7E8"/>
<path d="M936.568 504.885L758.576 490.443L758.307 488.83L933.814 415.139L936.568 504.885ZM762.136 489.032L934.821 503.005L932.134 417.557L762.136 489.032Z" fill="#E6E7E8"/>
<path d="M760.053 491.249L758.576 490.51L758.105 490.779L757.904 490.174L756.695 489.569L757.568 489.166L712.835 354.613L856.639 442.815L759.65 490.04L760.053 491.249ZM715.857 358.509L759.046 488.427L853.079 442.681L715.857 358.509Z" fill="#E6E7E8"/>
<path d="M661.99 491.719L714.38 354.009L759.717 490.443L661.99 491.719ZM714.313 359.047L664.475 490.04L757.501 488.831L714.313 359.047Z" fill="#E6E7E8"/>
<path d="M618.668 485.539H617.257L639.288 363.816L716.261 355.486L618.668 485.539ZM640.698 365.361L619.675 481.374L712.499 357.569L640.698 365.361Z" fill="#E6E7E8"/>
<path d="M663.736 491.786L616.653 485.337L713.641 356.023L715.119 356.83L663.736 491.786ZM619.742 484.06L662.662 489.972L711.425 361.868L619.742 484.06Z" fill="#E6E7E8"/>
<path d="M618.668 486.883L617.794 485.539H617.19L617.324 484.867L468.08 264.598L469.222 263.389L640.9 364.152L619.138 484.531L619.809 485.539H618.936L618.668 486.883ZM471.573 266.747L617.794 482.516L639.086 365.026L471.573 266.747Z" fill="#E6E7E8"/>
<path d="M620.145 486.009L525.104 463.841L467.946 264.329L469.423 263.59L620.145 486.009ZM526.515 462.43L616.384 483.389L471.102 268.964L526.515 462.43Z" fill="#E6E7E8"/>
<path d="M371.427 446.107L370.554 445.435L370.017 445.234H370.084H370.017L432.75 260.567L470.095 263.389L371.427 446.107ZM433.892 262.381L374.785 436.299L467.341 264.934L433.892 262.381Z" fill="#E6E7E8"/>
<path d="M526.985 464.109L369.479 446.173L469.02 261.91L526.985 464.109ZM372.166 444.83L524.634 462.161L468.55 266.344L372.166 444.83Z" fill="#E6E7E8"/>
<path d="M370.688 446.846L370.084 445.973L239.109 250.76L434.497 260.635L371.561 445.905L370.688 446.846ZM242.4 252.641L370.554 443.621L432.146 262.247L242.4 252.641Z" fill="#E6E7E8"/>
<path d="M370.42 446.241L200.891 346.35L240.586 249.953L241.46 251.229L371.494 445.032L370.42 446.241ZM203.04 345.611L368.069 442.882L240.922 253.513L203.04 345.611Z" fill="#E6E7E8"/>
<path d="M130.433 333.521L129.761 332.714L129.224 332.446L193.57 183.047L241.93 251.969L130.433 333.521ZM193.906 186.473L131.911 330.296L239.512 251.499L193.906 186.473Z" fill="#E6E7E8"/>
<path d="M202.503 346.888L127.881 333.252L242.669 249.215L202.503 346.888ZM132.045 332.378L201.428 345.075L238.84 254.186L132.045 332.378Z" fill="#E6E7E8"/>
<path d="M1229.28 474.254L1229.68 471.701L1243.99 363.414L1358.98 377.051L1231.03 472.508L1229.28 474.254ZM1245.4 365.228L1231.63 469.888L1354.55 378.126L1245.4 365.228Z" fill="#E6E7E8"/>
<path d="M1305.31 552.178L1229.21 471.634L1358.24 375.371L1305.31 552.178ZM1231.76 471.903L1304.57 548.953L1355.22 379.805L1231.76 471.903Z" fill="#E6E7E8"/>
<path d="M1229.35 474.119L1229.62 471.969L1132.63 328.616L1245.6 363.682L1245.53 364.354L1231.43 471.499L1231.63 471.835L1231.36 472.104L1231.09 473.985L1230.42 472.977L1229.35 474.119ZM1136.72 331.639L1229.95 469.417L1243.72 364.824L1136.72 331.639Z" fill="#E6E7E8"/>
<path d="M1232.5 473.179L1002.26 410.168L1134.91 329.02L1232.5 473.179ZM1006.49 409.563L1228.54 470.357L1134.44 331.304L1006.49 409.563Z" fill="#E6E7E8"/>
<path d="M933.276 417.154L932.739 416.348L932.134 416.281L938.448 349.978L939.12 349.911L1134.64 329.355L1135.04 330.968L933.276 417.154ZM939.993 351.523L933.948 415.072L1129.2 331.639L939.993 351.523Z" fill="#E6E7E8"/>
<path d="M933.007 417.221L932.604 415.608L1134.31 329.422L1135.05 330.9L1004.61 410.705H1004.41L933.007 417.221ZM1124.3 335.468L938.179 415.004L1004.07 408.958L1124.3 335.468Z" fill="#E6E7E8"/>
<path d="M932.94 417.557L932.336 416.952L823.862 303.022L824.802 301.679L940.127 350.18L940.06 350.784L933.813 416.751L932.94 417.557ZM827.824 304.769L932.269 414.4L938.246 351.187L827.824 304.769Z" fill="#E6E7E8"/>
<path d="M854.288 443.89L854.087 442.949L823.056 299.73L934.552 416.751L854.288 443.89ZM825.944 305.239L855.497 441.673L931.463 416.012L825.944 305.239Z" fill="#E6E7E8"/>
<path d="M713.507 357.905V356.562L709.477 248.006L826.414 302.418L713.507 357.905ZM711.29 250.693L715.119 355.218L822.451 302.485L711.29 250.693Z" fill="#E6E7E8"/>
<path d="M856.102 444.495L712.567 356.427L825.004 301.209L856.102 444.495ZM716.126 356.629L853.617 441.002L823.862 303.694L716.126 356.629Z" fill="#E6E7E8"/>
<path d="M713.574 356.83L648.691 169.141L650.169 168.335L711.223 249.08L715.186 356.494L713.574 356.83ZM652.049 173.575L713.305 350.919L709.544 249.685L652.049 173.575Z" fill="#E6E7E8"/>
<path d="M639.086 365.496L648.624 168.805L650.236 168.604L715.455 357.3L639.086 365.496ZM650.102 173.239L640.832 363.615L713.171 355.822L650.102 173.239Z" fill="#E6E7E8"/>
<path d="M640.765 366.033L467.073 264.128L468.416 263.389L650.438 167.395L640.765 366.033ZM470.498 264.195L639.221 363.145L648.624 170.283L470.498 264.195Z" fill="#E6E7E8"/>
<path d="M240.855 252.573L240.318 251.028L331.127 198.967L448.87 176.262L449.34 177.874L240.922 252.573H240.855ZM331.731 200.579L249.452 247.737L438.459 180.024L331.731 200.579Z" fill="#E6E7E8"/>
<path d="M434.026 262.313L240.721 252.573L240.452 250.961L450.146 175.791L434.026 262.313ZM245.019 251.095L432.616 260.567L447.93 178.344L245.019 251.095Z" fill="#E6E7E8"/>
<path d="M240.586 252.842L126 113.519L127.007 112.176L333.343 199.639L242.064 251.969L242.4 252.439L240.989 252.573L240.586 252.842ZM129.493 115.064L240.922 250.625L329.515 199.84L129.493 115.064Z" fill="#E6E7E8"/>
<path d="M240.116 252.237L126 113.519L127.276 112.377L194.376 184.121L241.459 251.162L240.116 252.237ZM144.202 132.933L227.354 234.099L193.032 185.196L144.202 132.933Z" fill="#E6E7E8"/>
<path d="M1062.98 922.652C1070.36 924.465 1077.82 919.897 1079.63 912.508C1081.45 905.052 1076.88 897.595 1069.49 895.781C1062.1 893.968 1054.65 898.535 1052.83 905.925C1051.02 913.381 1055.59 920.838 1062.98 922.652Z" fill="#D1D3D4"/>
<path d="M784.972 892.624C785.308 892.691 785.711 892.758 786.047 892.691C787.592 892.624 788.935 891.482 789.338 889.937C789.808 887.989 788.599 885.973 786.651 885.503C786.316 885.436 785.913 885.369 785.577 885.436C784.032 885.503 782.621 886.645 782.286 888.19C781.815 890.138 783.024 892.154 784.972 892.624Z" fill="#E6E7E8"/>
<path d="M620.347 863.738C621.287 864.343 622.294 864.813 623.436 865.082C629.011 866.493 634.653 862.999 635.996 857.424C637.004 853.192 635.325 848.96 632.101 846.541C631.026 845.735 629.75 845.131 628.339 844.795C622.765 843.384 617.123 846.877 615.779 852.453C614.705 856.954 616.652 861.454 620.347 863.738Z" fill="#D1D3D4"/>
<path d="M419.182 805.766C422.071 806.437 424.959 804.691 425.698 801.802C426.369 798.914 424.623 796.025 421.735 795.286C418.847 794.614 415.958 796.361 415.22 799.25C414.548 802.138 416.361 805.094 419.182 805.766Z" fill="#D1D3D4"/>
<path d="M1198.32 888.795C1198.85 889.131 1199.39 889.333 1199.99 889.534C1203.29 890.34 1206.64 888.325 1207.45 884.966C1208.12 882.279 1206.91 879.592 1204.63 878.249C1204.09 877.913 1203.55 877.711 1202.95 877.577C1199.66 876.771 1196.3 878.786 1195.49 882.078C1194.82 884.698 1196.03 887.452 1198.32 888.795Z" fill="#F1F2F2"/>
<path d="M1041.01 835.39C1047.33 836.935 1053.64 833.039 1055.18 826.724C1056.73 820.409 1052.9 814.028 1046.59 812.483C1040.27 810.938 1033.96 814.834 1032.41 821.148C1030.8 827.463 1034.7 833.845 1041.01 835.39Z" fill="#A7A9AC"/>
<path d="M1013.54 751.892C1015.69 752.429 1017.84 751.085 1018.38 748.936C1018.91 746.786 1017.57 744.636 1015.49 744.099C1013.34 743.562 1011.19 744.905 1010.65 747.055C1010.05 749.204 1011.39 751.421 1013.54 751.892Z" fill="#E6E7E8"/>
<path d="M905.671 714.407C909.23 715.281 912.857 713.064 913.731 709.503C914.604 705.943 912.387 702.316 908.827 701.442C905.268 700.569 901.641 702.786 900.767 706.346C899.894 709.906 902.111 713.534 905.671 714.407Z" fill="#E6E7E8"/>
<path d="M698.931 734.963C704.506 736.306 710.148 732.88 711.559 727.305C712.902 721.662 709.477 716.019 703.902 714.676C698.327 713.265 692.685 716.758 691.274 722.334C689.864 727.909 693.289 733.552 698.931 734.963Z" fill="#BCBEC0"/>
<path d="M716.798 662.883C711.022 661.472 705.245 665.032 703.835 670.81C702.424 676.587 705.984 682.431 711.693 683.842C717.47 685.252 723.246 681.692 724.657 675.915C726.067 670.071 722.507 664.294 716.798 662.883Z" fill="#D1D3D4"/>
<path d="M555.934 691.5C556.337 691.701 556.74 691.836 557.143 691.903C560.568 692.776 564.061 690.626 564.934 687.201C565.673 684.11 564.061 680.953 561.24 679.744C560.904 679.61 560.568 679.475 560.165 679.341C556.74 678.535 553.247 680.617 552.374 684.11C551.702 687.133 553.247 690.223 555.934 691.5Z" fill="#D1D3D4"/>
<path d="M475.535 647.769C472.714 647.097 469.893 648.844 469.222 651.598C468.55 654.419 470.229 657.241 473.05 657.912C475.871 658.584 478.692 656.838 479.364 654.083C480.103 651.329 478.356 648.441 475.535 647.769Z" fill="#BCBEC0"/>
<path d="M303.253 600.409C304.327 601.887 305.872 602.962 307.753 603.432C312.052 604.507 316.417 601.82 317.492 597.52C318.097 595.102 317.492 592.617 316.082 590.803C315.007 589.392 313.462 588.25 311.581 587.78C307.283 586.705 302.917 589.392 301.842 593.691C301.305 596.11 301.909 598.528 303.253 600.409Z" fill="#D1D3D4"/>
<path d="M1133.7 711.317C1139.55 712.727 1145.46 709.167 1146.93 703.255C1147.27 701.778 1147.34 700.3 1147.07 698.889C1146.4 694.657 1143.31 691.097 1138.87 689.955C1133.03 688.544 1127.12 692.104 1125.64 698.016C1125.31 699.494 1125.24 700.971 1125.44 702.382C1126.25 706.614 1129.34 710.242 1133.7 711.317Z" fill="#D1D3D4"/>
<path d="M994.599 728.111C999.301 729.253 1004.07 726.364 1005.21 721.662C1006.35 716.96 1003.47 712.19 998.764 711.048C994.062 709.906 989.293 712.795 988.151 717.497C987.01 722.267 989.898 726.969 994.599 728.111Z" fill="#F1F2F2"/>
<path d="M880.08 597.925C879.341 597.723 878.535 597.723 877.864 597.925C876.319 598.328 874.976 599.537 874.573 601.283C873.968 603.769 875.446 606.187 877.931 606.792C878.67 606.993 879.476 606.926 880.148 606.792C881.692 606.389 882.968 605.112 883.439 603.433C884.043 601.015 882.565 598.529 880.08 597.925Z" fill="#BCBEC0"/>
<path d="M785.442 571.053C787.592 571.591 789.741 570.247 790.278 568.098C790.816 565.948 789.472 563.798 787.323 563.261C785.174 562.724 783.024 564.067 782.487 566.217C782.017 568.366 783.293 570.516 785.442 571.053Z" fill="#E6E7E8"/>
<path d="M665.147 550.027C661.318 549.087 657.423 551.438 656.483 555.334C655.542 559.163 657.893 563.059 661.721 564C665.55 564.94 669.446 562.589 670.386 558.693C671.393 554.864 669.043 550.968 665.147 550.027Z" fill="#BCBEC0"/>
<path d="M556.807 538.876C555.799 543.176 558.419 547.475 562.65 548.55C566.949 549.625 571.248 547.005 572.322 542.705C573.33 538.406 570.71 534.107 566.479 533.032C562.18 531.957 557.882 534.577 556.807 538.876Z" fill="#F1F2F2"/>
<path d="M478.961 594.431C480.909 594.901 482.924 593.692 483.394 591.744C483.864 589.795 482.655 587.78 480.707 587.31C479.498 587.041 478.222 587.377 477.349 588.183C476.812 588.653 476.409 589.325 476.274 590.064C475.804 591.945 477.013 593.96 478.961 594.431Z" fill="#D1D3D4"/>
<path d="M361.956 467.066C366.389 468.14 370.822 465.453 371.897 461.02C372.367 459.206 372.166 457.392 371.427 455.78C371.561 455.78 371.696 455.713 371.763 455.713C374.584 454.974 376.935 452.69 377.673 449.667C378.748 445.234 376.061 440.8 371.628 439.658C369.412 439.12 367.195 439.524 365.382 440.598C363.568 441.673 362.225 443.487 361.688 445.704C361.218 447.517 361.419 449.331 362.158 450.943C359.202 451.615 356.65 453.899 355.911 457.056C354.837 461.49 357.523 465.924 361.956 467.066Z" fill="#BCBEC0"/>
<path d="M1221.35 602.291C1222.29 603.164 1223.5 603.836 1224.91 604.172C1229.28 605.247 1233.71 602.56 1234.79 598.126C1235.53 595.103 1234.45 592.013 1232.3 590.065C1231.36 589.191 1230.15 588.52 1228.74 588.184C1224.38 587.109 1219.94 589.796 1218.87 594.23C1218.2 597.253 1219.2 600.343 1221.35 602.291Z" fill="#BCBEC0"/>
<path d="M1114.22 535.586C1117.58 536.392 1120.94 534.376 1121.75 531.018C1122.55 527.659 1120.54 524.3 1117.18 523.494C1113.82 522.688 1110.46 524.77 1109.66 528.062C1108.85 531.421 1110.93 534.779 1114.22 535.586Z" fill="#E6E7E8"/>
<path d="M978.815 528.8C974.987 527.859 971.091 530.211 970.218 534.04C969.278 537.869 971.628 541.765 975.457 542.705C979.285 543.646 983.114 541.295 984.054 537.466C984.994 533.569 982.644 529.74 978.815 528.8Z" fill="#F1F2F2"/>
<path d="M934.149 510.26C937.575 511.133 941.067 508.984 941.873 505.558C942.747 502.132 940.597 498.638 937.172 497.765C933.746 496.892 930.254 499.041 929.447 502.467C928.574 505.893 930.724 509.387 934.149 510.26Z" fill="#D1D3D4"/>
<path d="M757.77 492.995C759.65 493.465 761.464 492.323 761.934 490.443C762.404 488.562 761.262 486.681 759.382 486.278C757.501 485.807 755.688 486.949 755.217 488.83C754.814 490.644 755.956 492.525 757.77 492.995Z" fill="#BCBEC0"/>
<path d="M668.371 492.122C669.043 489.301 667.296 486.412 664.475 485.673C661.587 485.001 658.766 486.748 658.027 489.569C657.356 492.458 659.102 495.346 661.923 496.018C664.811 496.757 667.699 495.01 668.371 492.122Z" fill="#D1D3D4"/>
<path d="M617.727 476.202C614.1 476.403 610.943 478.956 610.003 482.718C608.861 487.286 611.682 491.921 616.249 492.996C620.817 494.138 625.384 491.317 626.526 486.749C627.668 482.181 624.847 477.545 620.279 476.471C619.406 476.202 618.533 476.135 617.727 476.202Z" fill="#D1D3D4"/>
<path d="M522.552 476.538C529.941 478.351 537.329 473.783 539.142 466.394C540.956 459.005 536.388 451.548 529.067 449.734C521.679 447.921 514.291 452.489 512.477 459.878C510.664 467.267 515.164 474.724 522.552 476.538Z" fill="#BCBEC0"/>
<path d="M464.318 282.332C474.326 284.75 484.469 278.637 486.887 268.561C488.096 263.523 487.222 258.485 484.737 254.387C482.252 250.289 478.222 247.132 473.185 245.923C463.177 243.437 453.035 249.617 450.617 259.694C449.676 263.456 450.012 267.285 451.221 270.643C453.303 276.286 458.072 280.787 464.318 282.332Z" fill="#D1D3D4"/>
<path d="M1242.85 371.743C1246.94 372.751 1251.11 370.198 1252.12 366.101C1253.12 361.936 1250.64 357.771 1246.47 356.83C1242.38 355.823 1238.21 358.375 1237.21 362.473C1236.2 366.571 1238.75 370.736 1242.85 371.743Z" fill="#E6E7E8"/>
<path d="M1226.59 470.357C1226.53 470.491 1226.53 470.625 1226.46 470.76C1225.92 473.044 1227.26 475.261 1229.55 475.865C1231.63 476.403 1233.78 475.193 1234.52 473.178C1234.59 473.044 1234.59 472.909 1234.65 472.775C1235.19 470.491 1233.85 468.274 1231.56 467.67C1229.41 467.199 1227.26 468.341 1226.59 470.357Z" fill="#BCBEC0"/>
<path d="M1003.2 414.869C1005.95 415.541 1008.77 413.862 1009.44 411.04C1010.12 408.219 1008.44 405.465 1005.61 404.726C1002.79 404.054 1000.04 405.733 999.368 408.555C998.697 411.376 1000.38 414.198 1003.2 414.869Z" fill="#D1D3D4"/>
<path d="M1133.3 335.938C1136.52 336.744 1139.68 334.729 1140.49 331.572C1141.22 328.347 1139.28 325.123 1136.12 324.384C1132.96 323.578 1129.74 325.593 1128.93 328.75C1128.13 331.908 1130.07 335.132 1133.3 335.938Z" fill="#E6E7E8"/>
<path d="M926.089 410.1C925.082 411.242 924.343 412.586 923.94 414.131C922.731 419.102 925.753 424.207 930.791 425.416C934.217 426.223 937.642 425.081 939.859 422.595C940.866 421.52 941.605 420.11 942.008 418.565C943.217 413.593 940.127 408.488 935.157 407.279C931.731 406.473 928.306 407.682 926.089 410.1Z" fill="#E6E7E8"/>
<path d="M937.776 356.628C941.067 357.434 944.291 355.419 945.097 352.127C945.903 348.836 943.888 345.544 940.664 344.738C937.44 343.932 934.149 345.947 933.343 349.239C932.537 352.53 934.485 355.822 937.776 356.628Z" fill="#BCBEC0"/>
<path d="M853.415 448.861C856.773 449.667 860.132 447.585 861.005 444.226C861.811 440.867 859.729 437.441 856.37 436.635C853.012 435.829 849.654 437.844 848.848 441.27C847.975 444.629 850.057 448.055 853.415 448.861Z" fill="#A7A9AC"/>
<path d="M821.847 313.301C827.824 314.779 833.802 311.084 835.28 305.105C836.758 299.127 833.064 293.081 827.086 291.603C821.108 290.125 815.13 293.82 813.652 299.798C812.175 305.777 815.869 311.823 821.847 313.301Z" fill="#A7A9AC"/>
<path d="M709.007 255.127C712.164 255.933 715.388 253.985 716.194 250.76C716.932 247.603 715.052 244.379 711.828 243.573C708.671 242.766 705.447 244.782 704.641 247.939C703.835 251.163 705.783 254.388 709.007 255.127Z" fill="#D1D3D4"/>
<path d="M712.499 364.152C716.664 365.16 720.895 362.607 721.903 358.442C722.91 354.277 720.358 350.045 716.193 348.971C712.029 347.963 707.798 350.516 706.79 354.748C705.783 358.913 708.335 363.145 712.499 364.152Z" fill="#BCBEC0"/>
<path d="M638.683 369.93C641.639 370.669 644.594 368.855 645.266 365.899C645.937 362.944 644.191 359.988 641.236 359.249C638.28 358.51 635.325 360.324 634.653 363.28C633.914 366.235 635.728 369.191 638.683 369.93Z" fill="#D1D3D4"/>
<path d="M646.139 182.643C653.728 184.524 661.386 179.822 663.199 172.231C665.013 164.64 660.378 156.915 652.788 155.101C645.198 153.22 637.541 157.922 635.728 165.513C633.914 173.104 638.549 180.762 646.139 182.643Z" fill="#E6E7E8"/>
<path d="M429.123 260.433C428.586 262.784 429.997 265.068 432.28 265.673C434.564 266.21 436.915 264.799 437.519 262.515C438.057 260.164 436.646 257.88 434.362 257.276C432.079 256.671 429.728 258.082 429.123 260.433Z" fill="#D1D3D4"/>
<path d="M446.989 185.667C451.758 186.809 456.527 183.92 457.669 179.151C458.811 174.381 455.923 169.612 451.154 168.47C446.385 167.328 441.616 170.216 440.474 174.986C439.332 179.755 442.221 184.525 446.989 185.667Z" fill="#F1F2F2"/>
<path d="M238.639 260.5C239.848 260.769 241.057 260.836 242.198 260.635C245.624 260.097 248.579 257.477 249.452 253.85C250.594 249.013 247.706 244.177 242.87 242.967C241.93 242.699 240.922 242.699 239.982 242.766C236.221 243.102 232.929 245.722 231.989 249.618C230.847 254.454 233.803 259.291 238.639 260.5Z" fill="#A7A9AC"/>
<path d="M329.918 206.02C333.344 206.893 336.836 204.744 337.709 201.251C338.583 197.758 336.433 194.264 333.008 193.458C329.515 192.585 326.09 194.735 325.216 198.228C324.343 201.721 326.425 205.214 329.918 206.02Z" fill="#A7A9AC"/>
</g>
</svg>
