<svg width="62" height="62" viewBox="0 0 62 62" fill="none" xmlns="http://www.w3.org/2000/svg">
<g clip-path="url(#clip0)">
<path d="M31 0.0805664C13.8672 0.0805664 0 13.9455 0 31.0806C1.61334 72.2036 60.3916 72.1945 62 31.0803C62 13.9478 48.1352 0.0805664 31 0.0805664ZM31 58.4335C15.9176 58.4335 3.64706 46.163 3.64706 31.0806C5.14952 -5.20682 56.8559 -5.19624 58.3529 31.0808C58.3529 46.1631 46.0824 58.4335 31 58.4335Z" fill="white" fill-opacity="0.9"/>
<path d="M31 0.0805664C13.8672 0.0805664 0 13.9455 0 31.0806C1.61334 72.2036 60.3916 72.1945 62 31.0803C62 13.9478 48.1352 0.0805664 31 0.0805664ZM31 58.4335C15.9176 58.4335 3.64706 46.163 3.64706 31.0806C5.14952 -5.20682 56.8559 -5.19624 58.3529 31.0808C58.3529 46.1631 46.0824 58.4335 31 58.4335Z" fill="#FFAC0B"/>
<path d="M49.1443 29.2569C48.2863 20.6548 41.4256 13.7941 32.8235 12.936V7.37451H29.1764V12.936C20.5743 13.7941 13.7136 20.6548 12.8556 29.2569H7.29407V32.9039H12.8556C13.7136 41.506 20.5743 48.3667 29.1764 49.2248V54.7863H32.8235V49.2248C41.4256 48.3667 48.2863 41.506 49.1443 32.9039H54.7058V29.2569H49.1443ZM45.4745 29.2569H39.934C39.2072 25.6896 36.3908 22.8732 32.8235 22.1462V16.6058C39.4124 17.4313 44.6491 22.6678 45.4745 29.2569ZM30.9999 36.551C27.9835 36.551 25.5294 34.0969 25.5294 31.0804C25.8299 23.8229 36.1711 23.8251 36.4705 31.0804C36.4705 34.0969 34.0166 36.551 30.9999 36.551ZM29.1764 16.6059V22.1463C25.6091 22.8733 22.7927 25.6897 22.0657 29.257H16.5254C17.3508 22.6678 22.5874 17.4313 29.1764 16.6059ZM16.5255 32.9039H22.0659C22.7929 36.4712 25.6092 39.2875 29.1765 40.0146V45.5548C22.5874 44.7296 17.3508 39.4929 16.5255 32.9039ZM32.8235 45.5548V40.0146C36.3908 39.2876 39.2072 36.4712 39.934 32.9039H45.4744C44.6491 39.4929 39.4124 44.7296 32.8235 45.5548Z" fill="white" fill-opacity="0.9"/>
<path d="M49.1443 29.2569C48.2863 20.6548 41.4256 13.7941 32.8235 12.936V7.37451H29.1764V12.936C20.5743 13.7941 13.7136 20.6548 12.8556 29.2569H7.29407V32.9039H12.8556C13.7136 41.506 20.5743 48.3667 29.1764 49.2248V54.7863H32.8235V49.2248C41.4256 48.3667 48.2863 41.506 49.1443 32.9039H54.7058V29.2569H49.1443ZM45.4745 29.2569H39.934C39.2072 25.6896 36.3908 22.8732 32.8235 22.1462V16.6058C39.4124 17.4313 44.6491 22.6678 45.4745 29.2569ZM30.9999 36.551C27.9835 36.551 25.5294 34.0969 25.5294 31.0804C25.8299 23.8229 36.1711 23.8251 36.4705 31.0804C36.4705 34.0969 34.0166 36.551 30.9999 36.551ZM29.1764 16.6059V22.1463C25.6091 22.8733 22.7927 25.6897 22.0657 29.257H16.5254C17.3508 22.6678 22.5874 17.4313 29.1764 16.6059ZM16.5255 32.9039H22.0659C22.7929 36.4712 25.6092 39.2875 29.1765 40.0146V45.5548C22.5874 44.7296 17.3508 39.4929 16.5255 32.9039ZM32.8235 45.5548V40.0146C36.3908 39.2876 39.2072 36.4712 39.934 32.9039H45.4744C44.6491 39.4929 39.4124 44.7296 32.8235 45.5548Z" fill="#FFAC0B"/>
</g>
<defs>
<clipPath id="clip0">
<rect width="62" height="62" fill="white"/>
</clipPath>
</defs>
</svg>
