<svg width="62" height="62" viewBox="0 0 62 62" fill="none" xmlns="http://www.w3.org/2000/svg">
<g clip-path="url(#clip0)">
<path d="M28.5445 16.9543L28.9733 18.1638H40.0033L39.5613 15.9861C37.9691 8.14222 31.8509 2.04079 23.9746 0.441992L21.7969 0V10.9874C22.209 11.2278 26.7936 12.0156 28.5445 16.9543ZM25.4297 4.60144C30.097 6.23681 33.7619 9.88731 35.3996 14.531H31.4662C30.2101 11.9058 28.0549 9.75071 25.4297 8.49461V4.60144Z" fill="white" fill-opacity="0.9"/>
<path d="M28.5445 16.9543L28.9733 18.1638H40.0033L39.5613 15.9861C37.9691 8.14222 31.8509 2.04079 23.9746 0.441992L21.7969 0V10.9874C22.209 11.2278 26.7936 12.0156 28.5445 16.9543ZM25.4297 4.60144C30.097 6.23681 33.7619 9.88731 35.3996 14.531H31.4662C30.2101 11.9058 28.0549 9.75071 25.4297 8.49461V4.60144Z" fill="#FFAC0B"/>
<path d="M19.9805 39.9617C29.6232 39.9617 37.7067 33.1121 39.5613 23.9754L40.0033 21.7976H28.9733C28.942 21.8416 27.1587 29.0632 19.9805 29.0632C14.9726 29.0632 10.8984 24.989 10.8984 19.9812C10.8984 12.6318 17.9574 11.1351 18.1641 10.9884V0.000976562L15.9863 0.44309C6.74044 2.3198 0 10.4469 0 19.9812C0 30.9986 8.96324 39.9617 19.9805 39.9617ZM31.4683 25.4304H35.3985C33.1243 31.8606 26.9616 36.3289 19.9806 36.3289C16.1265 36.3289 12.5803 34.9874 9.78256 32.748L12.37 30.1606C14.4933 31.7521 17.1288 32.696 19.9806 32.696C24.9143 32.696 29.3795 29.8245 31.4683 25.4304ZM14.5313 4.60545V8.4934C10.1371 10.5821 7.26563 15.0475 7.26563 19.9812C7.26563 22.8331 8.20943 25.4684 9.80109 27.5918L7.21368 30.1792C4.97429 27.3815 3.63281 23.8353 3.63281 19.9812C3.63281 13.0224 8.10105 6.87644 14.5313 4.60545Z" fill="white" fill-opacity="0.9"/>
<path d="M19.9805 39.9617C29.6232 39.9617 37.7067 33.1121 39.5613 23.9754L40.0033 21.7976H28.9733C28.942 21.8416 27.1587 29.0632 19.9805 29.0632C14.9726 29.0632 10.8984 24.989 10.8984 19.9812C10.8984 12.6318 17.9574 11.1351 18.1641 10.9884V0.000976562L15.9863 0.44309C6.74044 2.3198 0 10.4469 0 19.9812C0 30.9986 8.96324 39.9617 19.9805 39.9617ZM31.4683 25.4304H35.3985C33.1243 31.8606 26.9616 36.3289 19.9806 36.3289C16.1265 36.3289 12.5803 34.9874 9.78256 32.748L12.37 30.1606C14.4933 31.7521 17.1288 32.696 19.9806 32.696C24.9143 32.696 29.3795 29.8245 31.4683 25.4304ZM14.5313 4.60545V8.4934C10.1371 10.5821 7.26563 15.0475 7.26563 19.9812C7.26563 22.8331 8.20943 25.4684 9.80109 27.5918L7.21368 30.1792C4.97429 27.3815 3.63281 23.8353 3.63281 19.9812C3.63281 13.0224 8.10105 6.87644 14.5313 4.60545Z" fill="#FFAC0B"/>
<path d="M58.2461 29.3042H47.3477V58.3667H43.7148V47.4683H32.8164V58.3667H29.1836V43.8354H18.2852V58.3667H14.6523V51.1011H3.75391V58.3667H0V61.9995H62V58.3667H58.2461V29.3042ZM50.9805 32.937H54.6133V58.3667H50.9805V32.937ZM36.4492 51.1011H40.082V58.3667H36.4492V51.1011ZM21.918 47.4683H25.5508V58.3667H21.918V47.4683ZM7.38672 54.7339H11.0195V58.3667H7.38672V54.7339Z" fill="white" fill-opacity="0.9"/>
<path d="M58.2461 29.3042H47.3477V58.3667H43.7148V47.4683H32.8164V58.3667H29.1836V43.8354H18.2852V58.3667H14.6523V51.1011H3.75391V58.3667H0V61.9995H62V58.3667H58.2461V29.3042ZM50.9805 32.937H54.6133V58.3667H50.9805V32.937ZM36.4492 51.1011H40.082V58.3667H36.4492V51.1011ZM21.918 47.4683H25.5508V58.3667H21.918V47.4683ZM7.38672 54.7339H11.0195V58.3667H7.38672V54.7339Z" fill="#FFAC0B"/>
</g>
<defs>
<clipPath id="clip0">
<rect width="62" height="62" fill="white"/>
</clipPath>
</defs>
</svg>
