<svg width="62" height="62" viewBox="0 0 62 62" fill="none" xmlns="http://www.w3.org/2000/svg">
<path d="M19.4961 23.1289V38.8711H42.5039V23.1289H19.4961ZM38.8711 35.2383H23.1289V26.7617H38.8711V35.2383Z" fill="white" fill-opacity="0.9"/>
<path d="M19.4961 23.1289V38.8711H42.5039V23.1289H19.4961ZM38.8711 35.2383H23.1289V26.7617H38.8711V35.2383Z" fill="#FFAC0B"/>
<path d="M19.4961 0V15.7422H42.5039V0H19.4961ZM38.8711 12.1094H23.1289V3.63281H38.8711V12.1094Z" fill="white" fill-opacity="0.9"/>
<path d="M19.4961 0V15.7422H42.5039V0H19.4961ZM38.8711 12.1094H23.1289V3.63281H38.8711V12.1094Z" fill="#FFAC0B"/>
<path d="M19.4961 46.2578V62H42.5039V46.2578H19.4961ZM38.8711 58.3672H23.1289V49.8906H38.8711V58.3672Z" fill="white" fill-opacity="0.9"/>
<path d="M19.4961 46.2578V62H42.5039V46.2578H19.4961ZM38.8711 58.3672H23.1289V49.8906H38.8711V58.3672Z" fill="#FFAC0B"/>
<path d="M51.1273 6.05478L53.1641 4.01798L50.5953 1.44922L44.1733 7.87118L50.5953 14.2931L53.1641 11.7244L51.1273 9.68759H57.0352V29.1837H47.953V32.8165H60.668V6.05478H51.1273Z" fill="white" fill-opacity="0.9"/>
<path d="M51.1273 6.05478L53.1641 4.01798L50.5953 1.44922L44.1733 7.87118L50.5953 14.2931L53.1641 11.7244L51.1273 9.68759H57.0352V29.1837H47.953V32.8165H60.668V6.05478H51.1273Z" fill="#FFAC0B"/>
<path d="M11.4047 47.7069L8.83597 50.2757L10.8728 52.3125H4.96484V32.8164H14.047V29.1836H1.33203V55.9453H10.8728L8.83597 57.9821L11.4047 60.5509L17.8267 54.1289L11.4047 47.7069Z" fill="white" fill-opacity="0.9"/>
<path d="M11.4047 47.7069L8.83597 50.2757L10.8728 52.3125H4.96484V32.8164H14.047V29.1836H1.33203V55.9453H10.8728L8.83597 57.9821L11.4047 60.5509L17.8267 54.1289L11.4047 47.7069Z" fill="#FFAC0B"/>
</svg>
