<svg width="62" height="62" viewBox="0 0 62 62" fill="none" xmlns="http://www.w3.org/2000/svg">
<path d="M52.9204 9.07985C47.5014 3.66103 40.4293 0.497574 32.8417 0.0558242V0H31C22.7195 0 14.9349 3.22473 9.07961 9.07985C8.89664 9.26282 8.71621 9.44773 8.53844 9.63434C3.45008 14.9768 0.482438 21.8269 0.055582 29.1584H0V31C0 31.5176 0.0125937 32.0332 0.0376602 32.5464C0.383504 39.634 3.10497 46.2845 7.81684 51.5787L7.77737 51.6181L9.07949 52.9203C14.9346 58.7753 22.7195 62 31 62H32.8417V61.9444C40.4293 61.5028 47.5014 58.3392 52.9204 52.9204C58.7754 47.0653 62 39.2805 62 31C62 22.7197 58.7754 14.9349 52.9204 9.07985ZM10.3479 48.8812C10.2885 48.8128 10.2301 48.7435 10.1714 48.6746C10.0897 48.5785 10.0079 48.4822 9.92763 48.3852C9.86817 48.3135 9.80968 48.2412 9.75095 48.1689C9.67309 48.073 9.59571 47.9767 9.51942 47.8799C9.4613 47.8062 9.40378 47.7323 9.34638 47.6581C9.27118 47.5609 9.19695 47.4633 9.12332 47.3652C9.06726 47.2905 9.01119 47.2155 8.95597 47.1405C8.88295 47.0412 8.8109 46.9411 8.73921 46.841C8.68581 46.7663 8.63229 46.6914 8.57961 46.6162C8.50744 46.5131 8.4366 46.4091 8.36588 46.3052C8.31599 46.2318 8.26574 46.1584 8.21657 46.0846C8.14355 45.9748 8.07211 45.864 8.00078 45.7532C7.95634 45.6842 7.91118 45.6155 7.86746 45.5463C7.78766 45.42 7.70992 45.2926 7.6323 45.1652C7.59888 45.1103 7.56448 45.056 7.53167 45.0009C7.42196 44.8175 7.31406 44.6331 7.20883 44.4476C7.1966 44.426 7.18498 44.4041 7.17287 44.3824C7.08047 44.2184 6.98929 44.0538 6.90041 43.8879C6.86614 43.8242 6.83344 43.7597 6.79978 43.6957C6.73439 43.5712 6.66888 43.4467 6.60542 43.3214C6.56764 43.2467 6.53107 43.1713 6.49377 43.0961C6.43662 42.9803 6.37934 42.8645 6.32388 42.748C6.28573 42.668 6.24856 42.5875 6.21114 42.5069C6.15871 42.3942 6.10664 42.2813 6.05578 42.168C6.0186 42.0852 5.98227 42.0019 5.94607 41.9187C5.89702 41.8063 5.84871 41.6939 5.80136 41.5809C5.76588 41.4964 5.73088 41.4119 5.69625 41.327C5.65011 41.2139 5.60482 41.1004 5.56026 40.9867C5.52684 40.9016 5.49366 40.8166 5.46121 40.7312C5.41737 40.6161 5.37475 40.5005 5.33248 40.3848C5.30161 40.3001 5.27061 40.2157 5.2407 40.1307C5.19855 40.0117 5.15799 39.892 5.11754 39.7723C5.08981 39.6903 5.06172 39.6083 5.03471 39.526C4.99306 39.3987 4.95322 39.2706 4.91338 39.1427C4.88989 39.0674 4.86579 38.9922 4.8429 38.9166C4.79786 38.767 4.75499 38.6167 4.71248 38.4662C4.69698 38.4115 4.68064 38.3574 4.66562 38.3026C4.60895 38.0967 4.55446 37.8901 4.50263 37.6828C4.49258 37.6426 4.48362 37.6021 4.47381 37.5619C4.43276 37.3948 4.39268 37.2275 4.35477 37.0594C4.33818 36.9858 4.32305 36.9116 4.30706 36.8377C4.27776 36.7025 4.24857 36.5673 4.22133 36.4315C4.2045 36.3476 4.189 36.2635 4.17301 36.1794C4.14879 36.0529 4.12494 35.9262 4.10241 35.7992C4.08679 35.7104 4.07226 35.6214 4.05749 35.5325C4.03702 35.4093 4.01692 35.2859 3.99815 35.1622C3.98423 35.0712 3.97127 34.9797 3.95843 34.8884C3.94112 34.766 3.92441 34.6435 3.90866 34.5206C3.89692 34.4283 3.88554 34.3359 3.87464 34.2435C3.86011 34.1205 3.84666 33.9973 3.83383 33.8739C3.82426 33.7816 3.81482 33.6891 3.8061 33.5966C3.79447 33.4716 3.78406 33.3464 3.77389 33.2211C3.76662 33.1302 3.75911 33.0391 3.75282 32.948C3.75039 32.9127 3.7487 32.8771 3.74628 32.8417H26.5543L10.4261 48.9695C10.4001 48.9399 10.3737 48.9109 10.3479 48.8812ZM29.1583 58.2546C29.1229 58.2519 29.0873 58.2503 29.052 58.2478C28.9608 58.2414 28.8697 58.2339 28.7787 58.2267C28.656 58.2169 28.5334 58.2067 28.4111 58.1952C28.3993 58.1941 28.3874 58.1929 28.3755 58.1918C28.2922 58.184 28.2089 58.1755 28.1257 58.1669C28.004 58.1543 27.8826 58.1409 27.7613 58.1266C27.7577 58.1262 27.7541 58.1257 27.7504 58.1254C27.6599 58.1147 27.5693 58.1037 27.479 58.0921C27.3564 58.0763 27.2342 58.0597 27.112 58.0424C27.0204 58.0295 26.9287 58.0164 26.8373 58.0023C26.714 57.9836 26.591 57.9636 26.4681 57.9431C26.3868 57.9296 26.3054 57.9162 26.2242 57.9021C26.1997 57.8977 26.1754 57.8932 26.1512 57.8889C26.0412 57.8692 25.9314 57.8485 25.8217 57.8277C25.7621 57.8165 25.7026 57.8052 25.6432 57.7934C25.5949 57.7839 25.5464 57.7742 25.4982 57.7643C25.3865 57.7415 25.275 57.7178 25.1636 57.6937C25.1294 57.6863 25.095 57.679 25.0607 57.6716C25.0005 57.6583 24.9402 57.6451 24.8802 57.6314C24.7411 57.5997 24.6026 57.5668 24.4641 57.5328C24.4011 57.5175 24.338 57.5027 24.2753 57.4868C24.0852 57.439 23.8958 57.3894 23.7071 57.3373C23.7037 57.3363 23.7002 57.3355 23.6968 57.3346C23.6408 57.3191 23.5852 57.3023 23.5292 57.2865C23.3804 57.2445 23.2317 57.202 23.084 57.1576C23.0074 57.1345 22.9314 57.11 22.8551 57.0863C22.7344 57.0487 22.6139 57.0111 22.4938 56.9719C22.4613 56.9614 22.4291 56.9504 22.3967 56.9396C22.3397 56.9208 22.2829 56.9015 22.2262 56.8822C22.1172 56.8454 22.0083 56.8083 21.8998 56.77C21.8713 56.7599 21.843 56.7499 21.8144 56.7397C21.7476 56.7158 21.6811 56.6917 21.6145 56.6674C21.5054 56.6276 21.3964 56.5872 21.2878 56.5459C21.2768 56.5418 21.2659 56.5376 21.2547 56.5335C21.1737 56.5026 21.093 56.4712 21.0122 56.4395C20.8992 56.3952 20.7865 56.3503 20.6742 56.3044C20.5886 56.2695 20.5032 56.2341 20.418 56.1984C20.3058 56.1513 20.1942 56.1032 20.0827 56.0547C20.0057 56.0211 19.9289 55.9873 19.8521 55.9531C19.8356 55.9457 19.8192 55.9382 19.8027 55.9308C19.6995 55.8844 19.597 55.8372 19.4944 55.7895C19.4342 55.7615 19.3739 55.7335 19.3141 55.7051C19.2801 55.689 19.246 55.6729 19.2121 55.6566C19.1097 55.6075 19.0078 55.5574 18.9059 55.5071C18.861 55.4848 18.8159 55.4628 18.771 55.4402C18.7305 55.42 18.6902 55.4 18.6499 55.3796C18.5349 55.3211 18.4204 55.2613 18.3062 55.2012C18.2703 55.1823 18.2341 55.1637 18.1982 55.1446C18.1658 55.1274 18.1333 55.1107 18.101 55.0934C17.9405 55.0072 17.781 54.919 17.6222 54.8296C17.5996 54.817 17.5769 54.8049 17.5545 54.7921C17.5476 54.7883 17.5408 54.7841 17.534 54.7803C17.3638 54.6835 17.1943 54.5845 17.026 54.4838C16.9765 54.4543 16.9275 54.4238 16.878 54.394C16.8629 54.3849 16.8481 54.3756 16.833 54.3664C16.7203 54.2977 16.6079 54.2287 16.496 54.1585C16.4497 54.1294 16.4037 54.0997 16.3575 54.0704C16.3203 54.0467 16.2832 54.0226 16.2461 53.9986C16.152 53.9379 16.0581 53.8772 15.9646 53.8153C15.9287 53.7914 15.8928 53.7677 15.857 53.7437C15.8026 53.7073 15.7485 53.6704 15.6942 53.6336C15.6008 53.5702 15.5075 53.5064 15.4148 53.4416C15.3989 53.4306 15.383 53.4197 15.3673 53.4085C15.2974 53.3596 15.228 53.3099 15.1586 53.2603C15.0586 53.1887 14.9587 53.1168 14.8594 53.0438C14.7841 52.9884 14.7093 52.9325 14.6345 52.8763C14.5366 52.8027 14.439 52.7283 14.3419 52.6534C14.272 52.5995 14.2024 52.5452 14.133 52.4905C14.1249 52.4841 14.1166 52.4776 14.1085 52.4713C14.0155 52.3979 13.9231 52.3235 13.831 52.2489C13.7716 52.2009 13.7124 52.1525 13.6534 52.104C13.6359 52.0894 13.6182 52.075 13.6006 52.0605C13.5085 51.9841 13.4169 51.9067 13.3258 51.829C13.2635 51.7761 13.2013 51.7233 13.1395 51.6697C13.1316 51.6628 13.1237 51.6562 13.1158 51.6495C13.0872 51.6246 13.059 51.5989 13.0304 51.5739L29.1583 35.4466V58.2546ZM29.1585 29.158H3.74567C4.18234 22.5552 6.96132 16.4072 11.6842 11.6843C11.839 11.5297 11.9953 11.3772 12.1531 11.2267C12.2055 11.1767 12.2588 11.1282 12.3115 11.0785C12.4177 10.9787 12.5239 10.8789 12.6314 10.7811C12.6947 10.7235 12.7588 10.667 12.8226 10.6101C12.9208 10.5223 13.0192 10.4345 13.1186 10.3482C13.1872 10.2885 13.2567 10.23 13.3258 10.171C13.4218 10.0893 13.5179 10.0079 13.6148 9.92751C13.6865 9.86817 13.7586 9.80968 13.8307 9.75107C13.9269 9.67309 14.0233 9.59559 14.1204 9.51906C14.1938 9.46105 14.2676 9.40378 14.3415 9.3465C14.439 9.27118 14.5368 9.19671 14.6351 9.12284C14.7095 9.06702 14.7841 9.01131 14.8589 8.95621C14.9587 8.88283 15.0593 8.8103 15.16 8.73825C15.2341 8.68521 15.3084 8.63205 15.383 8.57985C15.487 8.50708 15.5918 8.43575 15.6965 8.36455C15.7692 8.31514 15.8416 8.2655 15.9147 8.21682C16.0258 8.14307 16.1376 8.07078 16.2494 7.99873C16.3174 7.95501 16.3848 7.91057 16.4531 7.86746C16.5819 7.78621 16.7115 7.70689 16.8415 7.62794C16.8938 7.59609 16.9457 7.56339 16.9983 7.53179C17.1822 7.42172 17.3673 7.31346 17.5535 7.20786C17.5696 7.19878 17.5858 7.19018 17.6018 7.1811C17.7714 7.08532 17.9417 6.99123 18.1132 6.89932C18.1742 6.8665 18.236 6.83526 18.2973 6.80293C18.4245 6.73584 18.5519 6.66912 18.6802 6.60409C18.7528 6.56728 18.8261 6.5318 18.899 6.49571C19.0169 6.43722 19.1351 6.3791 19.2539 6.3223C19.3319 6.28513 19.4102 6.24904 19.4886 6.21271C19.6037 6.15919 19.7191 6.10591 19.835 6.05396C19.9156 6.01787 19.9965 5.98252 20.0773 5.94728C20.1923 5.89714 20.3073 5.84762 20.4228 5.79906C20.5047 5.76467 20.5869 5.73076 20.6691 5.69722C20.7853 5.64987 20.9016 5.60325 21.0185 5.55748C21.1005 5.52527 21.1827 5.4933 21.265 5.46193C21.3838 5.41677 21.5031 5.37269 21.6225 5.32909C21.7034 5.29967 21.7842 5.26988 21.8653 5.24118C21.9891 5.19746 22.1133 5.15508 22.2377 5.11318C22.3152 5.08703 22.3925 5.06039 22.4702 5.03496C22.604 4.99112 22.7385 4.9491 22.8733 4.90745C22.9422 4.88613 23.0107 4.86397 23.0796 4.84314C23.2412 4.79459 23.4035 4.74796 23.5661 4.70231C23.6087 4.69032 23.6511 4.67737 23.6937 4.66562C23.902 4.60822 24.111 4.55312 24.3208 4.50057C24.3435 4.49488 24.3662 4.48991 24.3889 4.48434C24.5737 4.43869 24.7589 4.39449 24.9448 4.35259C25.0089 4.33818 25.0734 4.32511 25.1377 4.31106C25.2827 4.27945 25.4279 4.24833 25.5734 4.21915C25.6502 4.20377 25.7271 4.18972 25.804 4.17495C25.9379 4.14928 26.072 4.12385 26.2066 4.10036C26.2891 4.08582 26.3718 4.07238 26.4545 4.05858C26.5846 4.03702 26.7145 4.01571 26.845 3.99597C26.9302 3.98314 27.0154 3.97091 27.1007 3.9588C27.2297 3.94051 27.359 3.92283 27.4885 3.90636C27.5746 3.89546 27.6607 3.88493 27.7469 3.87464C27.8769 3.85926 28.0069 3.84509 28.1373 3.83153C28.2232 3.82269 28.3089 3.81385 28.395 3.80573C28.5275 3.79338 28.6603 3.78212 28.7932 3.77159C28.8769 3.76493 28.9607 3.75802 29.0446 3.75221C29.0824 3.74967 29.1204 3.74785 29.1582 3.74531V29.158H29.1585ZM50.3158 50.3158C45.5929 55.0387 39.445 57.8175 32.8417 58.2542V29.1584V26.5539V3.74591C39.445 4.18258 45.5929 6.96144 50.3158 11.6843C55.4751 16.8437 58.3167 23.7036 58.3167 31.0001C58.3167 38.2966 55.4752 45.1565 50.3158 50.3158Z" fill="white" fill-opacity="0.9"/>
<path d="M52.9204 9.07985C47.5014 3.66103 40.4293 0.497574 32.8417 0.0558242V0H31C22.7195 0 14.9349 3.22473 9.07961 9.07985C8.89664 9.26282 8.71621 9.44773 8.53844 9.63434C3.45008 14.9768 0.482438 21.8269 0.055582 29.1584H0V31C0 31.5176 0.0125937 32.0332 0.0376602 32.5464C0.383504 39.634 3.10497 46.2845 7.81684 51.5787L7.77737 51.6181L9.07949 52.9203C14.9346 58.7753 22.7195 62 31 62H32.8417V61.9444C40.4293 61.5028 47.5014 58.3392 52.9204 52.9204C58.7754 47.0653 62 39.2805 62 31C62 22.7197 58.7754 14.9349 52.9204 9.07985ZM10.3479 48.8812C10.2885 48.8128 10.2301 48.7435 10.1714 48.6746C10.0897 48.5785 10.0079 48.4822 9.92763 48.3852C9.86817 48.3135 9.80968 48.2412 9.75095 48.1689C9.67309 48.073 9.59571 47.9767 9.51942 47.8799C9.4613 47.8062 9.40378 47.7323 9.34638 47.6581C9.27118 47.5609 9.19695 47.4633 9.12332 47.3652C9.06726 47.2905 9.01119 47.2155 8.95597 47.1405C8.88295 47.0412 8.8109 46.9411 8.73921 46.841C8.68581 46.7663 8.63229 46.6914 8.57961 46.6162C8.50744 46.5131 8.4366 46.4091 8.36588 46.3052C8.31599 46.2318 8.26574 46.1584 8.21657 46.0846C8.14355 45.9748 8.07211 45.864 8.00078 45.7532C7.95634 45.6842 7.91118 45.6155 7.86746 45.5463C7.78766 45.42 7.70992 45.2926 7.6323 45.1652C7.59888 45.1103 7.56448 45.056 7.53167 45.0009C7.42196 44.8175 7.31406 44.6331 7.20883 44.4476C7.1966 44.426 7.18498 44.4041 7.17287 44.3824C7.08047 44.2184 6.98929 44.0538 6.90041 43.8879C6.86614 43.8242 6.83344 43.7597 6.79978 43.6957C6.73439 43.5712 6.66888 43.4467 6.60542 43.3214C6.56764 43.2467 6.53107 43.1713 6.49377 43.0961C6.43662 42.9803 6.37934 42.8645 6.32388 42.748C6.28573 42.668 6.24856 42.5875 6.21114 42.5069C6.15871 42.3942 6.10664 42.2813 6.05578 42.168C6.0186 42.0852 5.98227 42.0019 5.94607 41.9187C5.89702 41.8063 5.84871 41.6939 5.80136 41.5809C5.76588 41.4964 5.73088 41.4119 5.69625 41.327C5.65011 41.2139 5.60482 41.1004 5.56026 40.9867C5.52684 40.9016 5.49366 40.8166 5.46121 40.7312C5.41737 40.6161 5.37475 40.5005 5.33248 40.3848C5.30161 40.3001 5.27061 40.2157 5.2407 40.1307C5.19855 40.0117 5.15799 39.892 5.11754 39.7723C5.08981 39.6903 5.06172 39.6083 5.03471 39.526C4.99306 39.3987 4.95322 39.2706 4.91338 39.1427C4.88989 39.0674 4.86579 38.9922 4.8429 38.9166C4.79786 38.767 4.75499 38.6167 4.71248 38.4662C4.69698 38.4115 4.68064 38.3574 4.66562 38.3026C4.60895 38.0967 4.55446 37.8901 4.50263 37.6828C4.49258 37.6426 4.48362 37.6021 4.47381 37.5619C4.43276 37.3948 4.39268 37.2275 4.35477 37.0594C4.33818 36.9858 4.32305 36.9116 4.30706 36.8377C4.27776 36.7025 4.24857 36.5673 4.22133 36.4315C4.2045 36.3476 4.189 36.2635 4.17301 36.1794C4.14879 36.0529 4.12494 35.9262 4.10241 35.7992C4.08679 35.7104 4.07226 35.6214 4.05749 35.5325C4.03702 35.4093 4.01692 35.2859 3.99815 35.1622C3.98423 35.0712 3.97127 34.9797 3.95843 34.8884C3.94112 34.766 3.92441 34.6435 3.90866 34.5206C3.89692 34.4283 3.88554 34.3359 3.87464 34.2435C3.86011 34.1205 3.84666 33.9973 3.83383 33.8739C3.82426 33.7816 3.81482 33.6891 3.8061 33.5966C3.79447 33.4716 3.78406 33.3464 3.77389 33.2211C3.76662 33.1302 3.75911 33.0391 3.75282 32.948C3.75039 32.9127 3.7487 32.8771 3.74628 32.8417H26.5543L10.4261 48.9695C10.4001 48.9399 10.3737 48.9109 10.3479 48.8812ZM29.1583 58.2546C29.1229 58.2519 29.0873 58.2503 29.052 58.2478C28.9608 58.2414 28.8697 58.2339 28.7787 58.2267C28.656 58.2169 28.5334 58.2067 28.4111 58.1952C28.3993 58.1941 28.3874 58.1929 28.3755 58.1918C28.2922 58.184 28.2089 58.1755 28.1257 58.1669C28.004 58.1543 27.8826 58.1409 27.7613 58.1266C27.7577 58.1262 27.7541 58.1257 27.7504 58.1254C27.6599 58.1147 27.5693 58.1037 27.479 58.0921C27.3564 58.0763 27.2342 58.0597 27.112 58.0424C27.0204 58.0295 26.9287 58.0164 26.8373 58.0023C26.714 57.9836 26.591 57.9636 26.4681 57.9431C26.3868 57.9296 26.3054 57.9162 26.2242 57.9021C26.1997 57.8977 26.1754 57.8932 26.1512 57.8889C26.0412 57.8692 25.9314 57.8485 25.8217 57.8277C25.7621 57.8165 25.7026 57.8052 25.6432 57.7934C25.5949 57.7839 25.5464 57.7742 25.4982 57.7643C25.3865 57.7415 25.275 57.7178 25.1636 57.6937C25.1294 57.6863 25.095 57.679 25.0607 57.6716C25.0005 57.6583 24.9402 57.6451 24.8802 57.6314C24.7411 57.5997 24.6026 57.5668 24.4641 57.5328C24.4011 57.5175 24.338 57.5027 24.2753 57.4868C24.0852 57.439 23.8958 57.3894 23.7071 57.3373C23.7037 57.3363 23.7002 57.3355 23.6968 57.3346C23.6408 57.3191 23.5852 57.3023 23.5292 57.2865C23.3804 57.2445 23.2317 57.202 23.084 57.1576C23.0074 57.1345 22.9314 57.11 22.8551 57.0863C22.7344 57.0487 22.6139 57.0111 22.4938 56.9719C22.4613 56.9614 22.4291 56.9504 22.3967 56.9396C22.3397 56.9208 22.2829 56.9015 22.2262 56.8822C22.1172 56.8454 22.0083 56.8083 21.8998 56.77C21.8713 56.7599 21.843 56.7499 21.8144 56.7397C21.7476 56.7158 21.6811 56.6917 21.6145 56.6674C21.5054 56.6276 21.3964 56.5872 21.2878 56.5459C21.2768 56.5418 21.2659 56.5376 21.2547 56.5335C21.1737 56.5026 21.093 56.4712 21.0122 56.4395C20.8992 56.3952 20.7865 56.3503 20.6742 56.3044C20.5886 56.2695 20.5032 56.2341 20.418 56.1984C20.3058 56.1513 20.1942 56.1032 20.0827 56.0547C20.0057 56.0211 19.9289 55.9873 19.8521 55.9531C19.8356 55.9457 19.8192 55.9382 19.8027 55.9308C19.6995 55.8844 19.597 55.8372 19.4944 55.7895C19.4342 55.7615 19.3739 55.7335 19.3141 55.7051C19.2801 55.689 19.246 55.6729 19.2121 55.6566C19.1097 55.6075 19.0078 55.5574 18.9059 55.5071C18.861 55.4848 18.8159 55.4628 18.771 55.4402C18.7305 55.42 18.6902 55.4 18.6499 55.3796C18.5349 55.3211 18.4204 55.2613 18.3062 55.2012C18.2703 55.1823 18.2341 55.1637 18.1982 55.1446C18.1658 55.1274 18.1333 55.1107 18.101 55.0934C17.9405 55.0072 17.781 54.919 17.6222 54.8296C17.5996 54.817 17.5769 54.8049 17.5545 54.7921C17.5476 54.7883 17.5408 54.7841 17.534 54.7803C17.3638 54.6835 17.1943 54.5845 17.026 54.4838C16.9765 54.4543 16.9275 54.4238 16.878 54.394C16.8629 54.3849 16.8481 54.3756 16.833 54.3664C16.7203 54.2977 16.6079 54.2287 16.496 54.1585C16.4497 54.1294 16.4037 54.0997 16.3575 54.0704C16.3203 54.0467 16.2832 54.0226 16.2461 53.9986C16.152 53.9379 16.0581 53.8772 15.9646 53.8153C15.9287 53.7914 15.8928 53.7677 15.857 53.7437C15.8026 53.7073 15.7485 53.6704 15.6942 53.6336C15.6008 53.5702 15.5075 53.5064 15.4148 53.4416C15.3989 53.4306 15.383 53.4197 15.3673 53.4085C15.2974 53.3596 15.228 53.3099 15.1586 53.2603C15.0586 53.1887 14.9587 53.1168 14.8594 53.0438C14.7841 52.9884 14.7093 52.9325 14.6345 52.8763C14.5366 52.8027 14.439 52.7283 14.3419 52.6534C14.272 52.5995 14.2024 52.5452 14.133 52.4905C14.1249 52.4841 14.1166 52.4776 14.1085 52.4713C14.0155 52.3979 13.9231 52.3235 13.831 52.2489C13.7716 52.2009 13.7124 52.1525 13.6534 52.104C13.6359 52.0894 13.6182 52.075 13.6006 52.0605C13.5085 51.9841 13.4169 51.9067 13.3258 51.829C13.2635 51.7761 13.2013 51.7233 13.1395 51.6697C13.1316 51.6628 13.1237 51.6562 13.1158 51.6495C13.0872 51.6246 13.059 51.5989 13.0304 51.5739L29.1583 35.4466V58.2546ZM29.1585 29.158H3.74567C4.18234 22.5552 6.96132 16.4072 11.6842 11.6843C11.839 11.5297 11.9953 11.3772 12.1531 11.2267C12.2055 11.1767 12.2588 11.1282 12.3115 11.0785C12.4177 10.9787 12.5239 10.8789 12.6314 10.7811C12.6947 10.7235 12.7588 10.667 12.8226 10.6101C12.9208 10.5223 13.0192 10.4345 13.1186 10.3482C13.1872 10.2885 13.2567 10.23 13.3258 10.171C13.4218 10.0893 13.5179 10.0079 13.6148 9.92751C13.6865 9.86817 13.7586 9.80968 13.8307 9.75107C13.9269 9.67309 14.0233 9.59559 14.1204 9.51906C14.1938 9.46105 14.2676 9.40378 14.3415 9.3465C14.439 9.27118 14.5368 9.19671 14.6351 9.12284C14.7095 9.06702 14.7841 9.01131 14.8589 8.95621C14.9587 8.88283 15.0593 8.8103 15.16 8.73825C15.2341 8.68521 15.3084 8.63205 15.383 8.57985C15.487 8.50708 15.5918 8.43575 15.6965 8.36455C15.7692 8.31514 15.8416 8.2655 15.9147 8.21682C16.0258 8.14307 16.1376 8.07078 16.2494 7.99873C16.3174 7.95501 16.3848 7.91057 16.4531 7.86746C16.5819 7.78621 16.7115 7.70689 16.8415 7.62794C16.8938 7.59609 16.9457 7.56339 16.9983 7.53179C17.1822 7.42172 17.3673 7.31346 17.5535 7.20786C17.5696 7.19878 17.5858 7.19018 17.6018 7.1811C17.7714 7.08532 17.9417 6.99123 18.1132 6.89932C18.1742 6.8665 18.236 6.83526 18.2973 6.80293C18.4245 6.73584 18.5519 6.66912 18.6802 6.60409C18.7528 6.56728 18.8261 6.5318 18.899 6.49571C19.0169 6.43722 19.1351 6.3791 19.2539 6.3223C19.3319 6.28513 19.4102 6.24904 19.4886 6.21271C19.6037 6.15919 19.7191 6.10591 19.835 6.05396C19.9156 6.01787 19.9965 5.98252 20.0773 5.94728C20.1923 5.89714 20.3073 5.84762 20.4228 5.79906C20.5047 5.76467 20.5869 5.73076 20.6691 5.69722C20.7853 5.64987 20.9016 5.60325 21.0185 5.55748C21.1005 5.52527 21.1827 5.4933 21.265 5.46193C21.3838 5.41677 21.5031 5.37269 21.6225 5.32909C21.7034 5.29967 21.7842 5.26988 21.8653 5.24118C21.9891 5.19746 22.1133 5.15508 22.2377 5.11318C22.3152 5.08703 22.3925 5.06039 22.4702 5.03496C22.604 4.99112 22.7385 4.9491 22.8733 4.90745C22.9422 4.88613 23.0107 4.86397 23.0796 4.84314C23.2412 4.79459 23.4035 4.74796 23.5661 4.70231C23.6087 4.69032 23.6511 4.67737 23.6937 4.66562C23.902 4.60822 24.111 4.55312 24.3208 4.50057C24.3435 4.49488 24.3662 4.48991 24.3889 4.48434C24.5737 4.43869 24.7589 4.39449 24.9448 4.35259C25.0089 4.33818 25.0734 4.32511 25.1377 4.31106C25.2827 4.27945 25.4279 4.24833 25.5734 4.21915C25.6502 4.20377 25.7271 4.18972 25.804 4.17495C25.9379 4.14928 26.072 4.12385 26.2066 4.10036C26.2891 4.08582 26.3718 4.07238 26.4545 4.05858C26.5846 4.03702 26.7145 4.01571 26.845 3.99597C26.9302 3.98314 27.0154 3.97091 27.1007 3.9588C27.2297 3.94051 27.359 3.92283 27.4885 3.90636C27.5746 3.89546 27.6607 3.88493 27.7469 3.87464C27.8769 3.85926 28.0069 3.84509 28.1373 3.83153C28.2232 3.82269 28.3089 3.81385 28.395 3.80573C28.5275 3.79338 28.6603 3.78212 28.7932 3.77159C28.8769 3.76493 28.9607 3.75802 29.0446 3.75221C29.0824 3.74967 29.1204 3.74785 29.1582 3.74531V29.158H29.1585ZM50.3158 50.3158C45.5929 55.0387 39.445 57.8175 32.8417 58.2542V29.1584V26.5539V3.74591C39.445 4.18258 45.5929 6.96144 50.3158 11.6843C55.4751 16.8437 58.3167 23.7036 58.3167 31.0001C58.3167 38.2966 55.4752 45.1565 50.3158 50.3158Z" fill="#FFAC0B"/>
<path d="M53.5641 29.1587H35.9111V32.842H53.5641V29.1587Z" fill="white" fill-opacity="0.9"/>
<path d="M53.5641 29.1587H35.9111V32.842H53.5641V29.1587Z" fill="#FFAC0B"/>
<path d="M42.2817 35.2974H35.9111V38.9807H42.2817V35.2974Z" fill="white" fill-opacity="0.9"/>
<path d="M42.2817 35.2974H35.9111V38.9807H42.2817V35.2974Z" fill="#FFAC0B"/>
<path d="M42.2817 41.436H35.9111V45.1193H42.2817V41.436Z" fill="white" fill-opacity="0.9"/>
<path d="M42.2817 41.436H35.9111V45.1193H42.2817V41.436Z" fill="#FFAC0B"/>
<path d="M42.2817 47.5752H35.9111V51.2585H42.2817V47.5752Z" fill="white" fill-opacity="0.9"/>
<path d="M42.2817 47.5752H35.9111V51.2585H42.2817V47.5752Z" fill="#FFAC0B"/>
<path d="M51.1085 23.0195H35.9111V26.7028H51.1085V23.0195Z" fill="white" fill-opacity="0.9"/>
<path d="M51.1085 23.0195H35.9111V26.7028H51.1085V23.0195Z" fill="#FFAC0B"/>
<path d="M48.653 16.8809H35.9111V20.5642H48.653V16.8809Z" fill="white" fill-opacity="0.9"/>
<path d="M48.653 16.8809H35.9111V20.5642H48.653V16.8809Z" fill="#FFAC0B"/>
</svg>
