<svg width="62" height="62" viewBox="0 0 62 62" fill="none" xmlns="http://www.w3.org/2000/svg">
<path d="M54.4144 43.3458H33.1139C31.1429 43.3458 29.5394 41.7422 29.5394 39.7713C29.5394 37.8003 31.1429 36.1968 33.1139 36.1968H50.6486C51.4402 38.4286 53.5716 40.0318 56.0714 40.0318C59.2434 40.0318 61.824 37.4512 61.824 34.2792C61.824 31.7794 60.2208 29.648 57.9889 28.8565V0H38.4353V16.7791H54.1539V28.8565C52.5222 29.4352 51.2273 30.73 50.6486 32.3617H33.1139C29.0283 32.3617 25.7043 35.6855 25.7043 39.7713C25.7043 43.857 29.0283 47.1808 33.1139 47.1808H54.4144C56.3854 47.1808 57.9889 48.7843 57.9889 50.7554C57.9889 52.7265 56.3854 54.3299 54.4144 54.3299H18.6762C17.8846 52.098 15.7533 50.4948 13.2534 50.4948C10.0815 50.4948 7.50073 53.0755 7.50073 56.2474C7.50073 59.4194 10.0815 62 13.2534 62C15.7533 62 17.8846 60.3967 18.6762 58.1649H54.4144C58.5 58.1649 61.824 54.8411 61.824 50.7554C61.824 46.6696 58.5 43.3458 54.4144 43.3458ZM42.2703 12.9441V3.83505H54.1539V12.9441H42.2703ZM56.0714 32.3617C57.1287 32.3617 57.9889 33.2219 57.9889 34.2792C57.9889 35.3365 57.1287 36.1968 56.0714 36.1968C55.0141 36.1968 54.1539 35.3365 54.1539 34.2792C54.1539 33.2219 55.0141 32.3617 56.0714 32.3617ZM13.2534 58.1649C12.1961 58.1649 11.3358 57.3047 11.3358 56.2474C11.3358 55.1901 12.196 54.3299 13.2534 54.3299C14.3109 54.3299 15.171 55.1901 15.171 56.2474C15.171 57.3047 14.3108 58.1649 13.2534 58.1649Z" fill="white" fill-opacity="0.9"/>
<path d="M54.4144 43.3458H33.1139C31.1429 43.3458 29.5394 41.7422 29.5394 39.7713C29.5394 37.8003 31.1429 36.1968 33.1139 36.1968H50.6486C51.4402 38.4286 53.5716 40.0318 56.0714 40.0318C59.2434 40.0318 61.824 37.4512 61.824 34.2792C61.824 31.7794 60.2208 29.648 57.9889 28.8565V0H38.4353V16.7791H54.1539V28.8565C52.5222 29.4352 51.2273 30.73 50.6486 32.3617H33.1139C29.0283 32.3617 25.7043 35.6855 25.7043 39.7713C25.7043 43.857 29.0283 47.1808 33.1139 47.1808H54.4144C56.3854 47.1808 57.9889 48.7843 57.9889 50.7554C57.9889 52.7265 56.3854 54.3299 54.4144 54.3299H18.6762C17.8846 52.098 15.7533 50.4948 13.2534 50.4948C10.0815 50.4948 7.50073 53.0755 7.50073 56.2474C7.50073 59.4194 10.0815 62 13.2534 62C15.7533 62 17.8846 60.3967 18.6762 58.1649H54.4144C58.5 58.1649 61.824 54.8411 61.824 50.7554C61.824 46.6696 58.5 43.3458 54.4144 43.3458ZM42.2703 12.9441V3.83505H54.1539V12.9441H42.2703ZM56.0714 32.3617C57.1287 32.3617 57.9889 33.2219 57.9889 34.2792C57.9889 35.3365 57.1287 36.1968 56.0714 36.1968C55.0141 36.1968 54.1539 35.3365 54.1539 34.2792C54.1539 33.2219 55.0141 32.3617 56.0714 32.3617ZM13.2534 58.1649C12.1961 58.1649 11.3358 57.3047 11.3358 56.2474C11.3358 55.1901 12.196 54.3299 13.2534 54.3299C14.3109 54.3299 15.171 55.1901 15.171 56.2474C15.171 57.3047 14.3108 58.1649 13.2534 58.1649Z" fill="#FFAC0B"/>
<path d="M17.7276 24.2242C17.7276 21.7571 15.7205 19.75 13.2533 19.75C10.7862 19.75 8.77905 21.7571 8.77905 24.2242C8.77905 26.6913 10.7862 28.6985 13.2533 28.6985C15.7205 28.6985 17.7276 26.6913 17.7276 24.2242Z" fill="white" fill-opacity="0.9"/>
<path d="M17.7276 24.2242C17.7276 21.7571 15.7205 19.75 13.2533 19.75C10.7862 19.75 8.77905 21.7571 8.77905 24.2242C8.77905 26.6913 10.7862 28.6985 13.2533 28.6985C15.7205 28.6985 17.7276 26.6913 17.7276 24.2242Z" fill="#FFAC0B"/>
<path d="M23.5141 32.3243C25.3567 29.9943 26.3306 27.1933 26.3306 24.2242C26.3306 17.0135 20.4641 11.147 13.2532 11.147C6.04251 11.1471 0.176025 17.0135 0.176025 24.2244C0.176025 27.1936 1.15 29.9945 2.99594 32.3286L13.2533 45.225L23.5141 32.3243ZM4.01108 24.2244C4.01108 19.1282 8.15715 14.9822 13.2533 14.9822C18.3494 14.9822 22.4956 19.1282 22.4956 24.2244C22.4956 26.3212 21.8076 28.2996 20.5095 29.9413L13.2533 39.0641L6.00057 29.9454C4.69909 28.2996 4.01108 26.3212 4.01108 24.2244Z" fill="white" fill-opacity="0.9"/>
<path d="M23.5141 32.3243C25.3567 29.9943 26.3306 27.1933 26.3306 24.2242C26.3306 17.0135 20.4641 11.147 13.2532 11.147C6.04251 11.1471 0.176025 17.0135 0.176025 24.2244C0.176025 27.1936 1.15 29.9945 2.99594 32.3286L13.2533 45.225L23.5141 32.3243ZM4.01108 24.2244C4.01108 19.1282 8.15715 14.9822 13.2533 14.9822C18.3494 14.9822 22.4956 19.1282 22.4956 24.2244C22.4956 26.3212 21.8076 28.2996 20.5095 29.9413L13.2533 39.0641L6.00057 29.9454C4.69909 28.2996 4.01108 26.3212 4.01108 24.2244Z" fill="#FFAC0B"/>
</svg>
