<svg width="62" height="62" viewBox="0 0 62 62" fill="none" xmlns="http://www.w3.org/2000/svg">
<path d="M62 10.8984V0H0V10.8984H2.42188V42.9883H0V46.6211H29.1836V51.4129C27.0692 52.1626 25.5508 54.1827 25.5508 56.5508C25.5508 59.5555 27.9953 62 31 62C34.0047 62 36.4492 59.5555 36.4492 56.5508C36.4492 54.1827 34.9308 52.1626 32.8164 51.4129V46.6211H62V42.9883H59.5781V10.8984H62ZM31 58.3672C29.9984 58.3672 29.1836 57.5523 29.1836 56.5508C29.1836 55.5492 29.9984 54.7344 31 54.7344C32.0016 54.7344 32.8164 55.5492 32.8164 56.5508C32.8164 57.5523 32.0016 58.3672 31 58.3672ZM3.63281 3.63281H58.3672V7.26562H3.63281V3.63281ZM55.9453 42.9883H6.05469V10.8984H55.9453V42.9883Z" fill="white" fill-opacity="0.9"/>
<path d="M62 10.8984V0H0V10.8984H2.42188V42.9883H0V46.6211H29.1836V51.4129C27.0692 52.1626 25.5508 54.1827 25.5508 56.5508C25.5508 59.5555 27.9953 62 31 62C34.0047 62 36.4492 59.5555 36.4492 56.5508C36.4492 54.1827 34.9308 52.1626 32.8164 51.4129V46.6211H62V42.9883H59.5781V10.8984H62ZM31 58.3672C29.9984 58.3672 29.1836 57.5523 29.1836 56.5508C29.1836 55.5492 29.9984 54.7344 31 54.7344C32.0016 54.7344 32.8164 55.5492 32.8164 56.5508C32.8164 57.5523 32.0016 58.3672 31 58.3672ZM3.63281 3.63281H58.3672V7.26562H3.63281V3.63281ZM55.9453 42.9883H6.05469V10.8984H55.9453V42.9883Z" fill="#FFAC0B"/>
<path d="M23.0123 39.1339C29.7342 39.1339 35.2028 33.6653 35.2028 26.9434V25.127H24.8287V14.7529H23.0123C16.2904 14.7529 10.8218 20.2215 10.8218 26.9434C10.8218 33.6653 16.2904 39.1339 23.0123 39.1339ZM21.1959 18.5797V28.7598H31.376C30.5409 32.6093 27.108 35.5011 23.0123 35.5011C18.2935 35.5011 14.4546 31.6622 14.4546 26.9434C14.4546 22.8477 17.3466 19.4148 21.1959 18.5797Z" fill="white" fill-opacity="0.9"/>
<path d="M23.0123 39.1339C29.7342 39.1339 35.2028 33.6653 35.2028 26.9434V25.127H24.8287V14.7529H23.0123C16.2904 14.7529 10.8218 20.2215 10.8218 26.9434C10.8218 33.6653 16.2904 39.1339 23.0123 39.1339ZM21.1959 18.5797V28.7598H31.376C30.5409 32.6093 27.108 35.5011 23.0123 35.5011C18.2935 35.5011 14.4546 31.6622 14.4546 26.9434C14.4546 22.8477 17.3466 19.4148 21.1959 18.5797Z" fill="#FFAC0B"/>
<path d="M41.1875 17.6323H50.5723V21.2651H41.1875V17.6323Z" fill="white" fill-opacity="0.9"/>
<path d="M41.1875 17.6323H50.5723V21.2651H41.1875V17.6323Z" fill="#FFAC0B"/>
<path d="M41.1875 24.877H50.5723V28.5098H41.1875V24.877Z" fill="white" fill-opacity="0.9"/>
<path d="M41.1875 24.877H50.5723V28.5098H41.1875V24.877Z" fill="#FFAC0B"/>
<path d="M41.1875 32.1211H50.5723V35.7539H41.1875V32.1211Z" fill="white" fill-opacity="0.9"/>
<path d="M41.1875 32.1211H50.5723V35.7539H41.1875V32.1211Z" fill="#FFAC0B"/>
</svg>
