<svg width="62" height="62" viewBox="0 0 62 62" fill="none" xmlns="http://www.w3.org/2000/svg">
<path d="M62 36.1918V25.8082L53.7856 24.4391C53.295 22.732 52.6131 21.0883 51.7493 19.5299L56.5915 12.7508L49.2492 5.40847L42.4701 10.2507C40.9116 9.3868 39.268 8.70492 37.5609 8.21439L36.1918 0H25.8082L24.4391 8.21439C22.732 8.70504 21.0883 9.38692 19.5299 10.2507L12.7508 5.40847L5.40847 12.7508L10.2507 19.5299C9.3868 21.0884 8.70492 22.732 8.21439 24.4391L0 25.8082V36.1918L8.21439 37.5609C8.70504 39.268 9.38692 40.9117 10.2507 42.4701L5.40847 49.2492L12.7508 56.5915L19.5299 51.7493C21.0884 52.6132 22.732 53.2951 24.4391 53.7857L25.8082 62H36.1918L37.5608 53.7856C39.2679 53.295 40.9116 52.6132 42.47 51.7492L49.249 56.5914L56.5914 49.249L51.7492 42.47C52.6131 40.9115 53.295 39.2679 53.7855 37.5608L62 36.1918ZM51.828 48.8549L48.8548 51.828L42.6348 47.3851C42.0253 47.7129 39.5887 49.6053 35.5452 50.5419L34.3582 50.8168L33.1023 58.3529H28.8977L27.6417 50.8168C26.9496 50.6083 23.9361 50.2371 20.3987 48.0302L19.365 47.3851L13.1451 51.828L10.1719 48.8549L14.6147 42.635C14.2814 42.0152 12.394 39.5868 11.458 35.5453L11.1831 34.3583L3.64706 33.1023V28.8977L11.1832 27.6417C11.3916 26.9496 11.7629 23.9361 13.9698 20.3987L14.6149 19.365L10.172 13.1451L13.1452 10.1719L19.3652 14.6147C19.9849 14.2814 22.4134 12.394 26.4548 11.458L27.6418 11.1831L28.8977 3.64706H33.1023L34.3582 11.1832C35.0499 11.3915 38.064 11.7629 41.6012 13.9698L42.6348 14.6149L48.8548 10.172L51.828 13.1452L47.3851 19.3652C47.7184 19.9849 49.6058 22.4134 50.5419 26.4548L50.8168 27.6418L58.3529 28.8977V33.1023L50.8168 34.3583C50.6084 35.0504 50.2371 38.0639 48.0302 41.6013L47.3851 42.635L51.828 48.8549Z" fill="white" fill-opacity="0.9"/>
<path d="M62 36.1918V25.8082L53.7856 24.4391C53.295 22.732 52.6131 21.0883 51.7493 19.5299L56.5915 12.7508L49.2492 5.40847L42.4701 10.2507C40.9116 9.3868 39.268 8.70492 37.5609 8.21439L36.1918 0H25.8082L24.4391 8.21439C22.732 8.70504 21.0883 9.38692 19.5299 10.2507L12.7508 5.40847L5.40847 12.7508L10.2507 19.5299C9.3868 21.0884 8.70492 22.732 8.21439 24.4391L0 25.8082V36.1918L8.21439 37.5609C8.70504 39.268 9.38692 40.9117 10.2507 42.4701L5.40847 49.2492L12.7508 56.5915L19.5299 51.7493C21.0884 52.6132 22.732 53.2951 24.4391 53.7857L25.8082 62H36.1918L37.5608 53.7856C39.2679 53.295 40.9116 52.6132 42.47 51.7492L49.249 56.5914L56.5914 49.249L51.7492 42.47C52.6131 40.9115 53.295 39.2679 53.7855 37.5608L62 36.1918ZM51.828 48.8549L48.8548 51.828L42.6348 47.3851C42.0253 47.7129 39.5887 49.6053 35.5452 50.5419L34.3582 50.8168L33.1023 58.3529H28.8977L27.6417 50.8168C26.9496 50.6083 23.9361 50.2371 20.3987 48.0302L19.365 47.3851L13.1451 51.828L10.1719 48.8549L14.6147 42.635C14.2814 42.0152 12.394 39.5868 11.458 35.5453L11.1831 34.3583L3.64706 33.1023V28.8977L11.1832 27.6417C11.3916 26.9496 11.7629 23.9361 13.9698 20.3987L14.6149 19.365L10.172 13.1451L13.1452 10.1719L19.3652 14.6147C19.9849 14.2814 22.4134 12.394 26.4548 11.458L27.6418 11.1831L28.8977 3.64706H33.1023L34.3582 11.1832C35.0499 11.3915 38.064 11.7629 41.6012 13.9698L42.6348 14.6149L48.8548 10.172L51.828 13.1452L47.3851 19.3652C47.7184 19.9849 49.6058 22.4134 50.5419 26.4548L50.8168 27.6418L58.3529 28.8977V33.1023L50.8168 34.3583C50.6084 35.0504 50.2371 38.0639 48.0302 41.6013L47.3851 42.635L51.828 48.8549Z" fill="#FFAC0B"/>
<path d="M31 15.5C22.4532 15.5 15.5 22.4532 15.5 31C15.5 39.5468 22.4532 46.5 31 46.5C39.5468 46.5 46.5 39.5468 46.5 31C46.5 22.4532 39.5468 15.5 31 15.5ZM25.6785 41.589C26.2506 39.1801 28.4186 37.3824 31 37.3824C33.5814 37.3824 35.7494 39.1801 36.3215 41.589C32.981 43.2747 29.0205 43.2755 25.6785 41.589ZM28.2647 31C28.2647 29.4917 29.4917 28.2647 31 28.2647C32.5083 28.2647 33.7353 29.4917 33.7353 31C33.7353 32.5083 32.5083 33.7353 31 33.7353C29.4917 33.7353 28.2647 32.5083 28.2647 31ZM39.4131 39.3407C38.6843 37.6014 37.4306 36.1358 35.8522 35.1393C36.805 34.0239 37.3823 32.5786 37.3823 31C37.3823 27.4807 34.5193 24.6176 31 24.6176C27.4807 24.6176 24.6176 27.4807 24.6176 31C24.6176 32.5784 25.1949 34.0239 26.1478 35.1393C24.5694 36.1358 23.3156 37.6014 22.5868 39.3407C20.4618 37.1973 19.1471 34.2494 19.1471 31C19.1471 24.4642 24.4642 19.1471 31 19.1471C37.5358 19.1471 42.8529 24.4642 42.8529 31C42.8529 34.2494 41.5382 37.1973 39.4131 39.3407Z" fill="white" fill-opacity="0.9"/>
<path d="M31 15.5C22.4532 15.5 15.5 22.4532 15.5 31C15.5 39.5468 22.4532 46.5 31 46.5C39.5468 46.5 46.5 39.5468 46.5 31C46.5 22.4532 39.5468 15.5 31 15.5ZM25.6785 41.589C26.2506 39.1801 28.4186 37.3824 31 37.3824C33.5814 37.3824 35.7494 39.1801 36.3215 41.589C32.981 43.2747 29.0205 43.2755 25.6785 41.589ZM28.2647 31C28.2647 29.4917 29.4917 28.2647 31 28.2647C32.5083 28.2647 33.7353 29.4917 33.7353 31C33.7353 32.5083 32.5083 33.7353 31 33.7353C29.4917 33.7353 28.2647 32.5083 28.2647 31ZM39.4131 39.3407C38.6843 37.6014 37.4306 36.1358 35.8522 35.1393C36.805 34.0239 37.3823 32.5786 37.3823 31C37.3823 27.4807 34.5193 24.6176 31 24.6176C27.4807 24.6176 24.6176 27.4807 24.6176 31C24.6176 32.5784 25.1949 34.0239 26.1478 35.1393C24.5694 36.1358 23.3156 37.6014 22.5868 39.3407C20.4618 37.1973 19.1471 34.2494 19.1471 31C19.1471 24.4642 24.4642 19.1471 31 19.1471C37.5358 19.1471 42.8529 24.4642 42.8529 31C42.8529 34.2494 41.5382 37.1973 39.4131 39.3407Z" fill="#FFAC0B"/>
</svg>
