<svg width="62" height="62" viewBox="0 0 62 62" fill="none" xmlns="http://www.w3.org/2000/svg">
<path d="M59.0109 17.7029L55.73 19.263C57.4799 22.9428 58.3672 26.8918 58.3672 31C58.3672 38.3101 55.5205 45.1825 50.3515 50.3515C45.1825 55.5205 38.3101 58.3672 31 58.3672C23.6899 58.3672 16.8175 55.5205 11.6485 50.3515C6.47948 45.1825 3.63281 38.3101 3.63281 31C3.63281 23.6899 6.47948 16.8175 11.6485 11.6485C16.8175 6.47948 23.6899 3.63281 31 3.63281C37.0902 3.63281 42.8759 5.61039 47.6267 9.25907L44.7705 9.78789L45.4318 13.36L53.4175 11.8815L53.608 3.76311L49.9761 3.67798L49.9116 6.4325C44.5158 2.26118 37.9319 0 31 0C22.7196 0 14.9349 3.22461 9.07961 9.07961C3.22461 14.9349 0 22.7196 0 31C0 39.2804 3.22461 47.0651 9.07961 52.9204C14.9349 58.7754 22.7196 62 31 62C39.2804 62 47.0651 58.7754 52.9204 52.9204C58.7754 47.0651 62 39.2804 62 31C62 26.3478 60.9943 21.874 59.0109 17.7029Z" fill="white" fill-opacity="0.9"/>
<path d="M59.0109 17.7029L55.73 19.263C57.4799 22.9428 58.3672 26.8918 58.3672 31C58.3672 38.3101 55.5205 45.1825 50.3515 50.3515C45.1825 55.5205 38.3101 58.3672 31 58.3672C23.6899 58.3672 16.8175 55.5205 11.6485 50.3515C6.47948 45.1825 3.63281 38.3101 3.63281 31C3.63281 23.6899 6.47948 16.8175 11.6485 11.6485C16.8175 6.47948 23.6899 3.63281 31 3.63281C37.0902 3.63281 42.8759 5.61039 47.6267 9.25907L44.7705 9.78789L45.4318 13.36L53.4175 11.8815L53.608 3.76311L49.9761 3.67798L49.9116 6.4325C44.5158 2.26118 37.9319 0 31 0C22.7196 0 14.9349 3.22461 9.07961 9.07961C3.22461 14.9349 0 22.7196 0 31C0 39.2804 3.22461 47.0651 9.07961 52.9204C14.9349 58.7754 22.7196 62 31 62C39.2804 62 47.0651 58.7754 52.9204 52.9204C58.7754 47.0651 62 39.2804 62 31C62 26.3478 60.9943 21.874 59.0109 17.7029Z" fill="#FFAC0B"/>
<path d="M9.27832 31.0001C9.27832 42.9776 19.0227 52.7219 31.0001 52.7219C42.9775 52.7219 52.7219 42.9776 52.7219 31.0001C52.7219 19.0226 42.9775 9.27832 31.0001 9.27832C19.0227 9.27832 9.27832 19.0226 9.27832 31.0001ZM48.9983 29.1837H45.7267V32.8165H48.9983C48.1442 41.3436 41.3436 48.1442 32.8165 48.9983V45.7266H29.1837V48.9983C20.6567 48.1442 13.8561 41.3436 13.002 32.8165H16.2735V29.1837H13.002C13.856 20.6567 20.6567 13.856 29.1837 13.002V16.2737H32.8165V13.002C41.3436 13.856 48.1441 20.6567 48.9983 29.1837Z" fill="white" fill-opacity="0.9"/>
<path d="M9.27832 31.0001C9.27832 42.9776 19.0227 52.7219 31.0001 52.7219C42.9775 52.7219 52.7219 42.9776 52.7219 31.0001C52.7219 19.0226 42.9775 9.27832 31.0001 9.27832C19.0227 9.27832 9.27832 19.0226 9.27832 31.0001ZM48.9983 29.1837H45.7267V32.8165H48.9983C48.1442 41.3436 41.3436 48.1442 32.8165 48.9983V45.7266H29.1837V48.9983C20.6567 48.1442 13.8561 41.3436 13.002 32.8165H16.2735V29.1837H13.002C13.856 20.6567 20.6567 13.856 29.1837 13.002V16.2737H32.8165V13.002C41.3436 13.856 48.1441 20.6567 48.9983 29.1837Z" fill="#FFAC0B"/>
<path d="M32.8164 20.5405H29.1836V32.8164H41.4595V29.1836H32.8164V20.5405Z" fill="white" fill-opacity="0.9"/>
<path d="M32.8164 20.5405H29.1836V32.8164H41.4595V29.1836H32.8164V20.5405Z" fill="#FFAC0B"/>
</svg>
