<svg width="11" height="11" viewBox="0 0 11 11" fill="none" xmlns="http://www.w3.org/2000/svg">
<g opacity="0.4" clip-path="url(#clip0)">
<path d="M6.07219 2.70654H1.36758C0.747071 2.70654 0.23938 3.2136 0.23938 3.83333V7.63059C0.23938 8.25033 0.747071 8.75738 1.36758 8.75738H6.07219C6.6927 8.75738 7.20039 8.25033 7.20039 7.63059V3.83333C7.20039 3.20233 6.6927 2.70654 6.07219 2.70654Z" fill="black"/>
<path d="M9.71632 3.32625C9.64862 3.33752 9.58093 3.37133 9.52452 3.40513L7.76453 4.41924V7.03338L9.5358 8.04749C9.86298 8.23904 10.2691 8.12636 10.4609 7.7996C10.5173 7.69819 10.5512 7.58551 10.5512 7.46156V3.97979C10.5512 3.56288 10.1563 3.22484 9.71632 3.32625Z" fill="black"/>
</g>
<defs>
<clipPath id="clip0">
<rect width="10.3118" height="10.2988" fill="white" transform="translate(0.23938 0.58252)"/>
</clipPath>
</defs>
</svg>
