<svg width="24" height="24" viewBox="0 0 24 24" fill="none" xmlns="http://www.w3.org/2000/svg">
<path fill-rule="evenodd" clip-rule="evenodd" d="M11.3721 3.39551V13.6197L9.73757 11.9796L9.6536 11.9068C9.36043 11.6883 8.94372 11.7117 8.67691 11.9774C8.38341 12.2697 8.38244 12.7446 8.67473 13.038L11.5907 15.9661L11.593 15.968C11.6176 15.9925 11.644 16.0154 11.6718 16.0363L11.6749 16.039C11.969 16.258 12.3871 16.2336 12.6536 15.9661L15.5696 13.038L15.642 12.9538C15.8593 12.6597 15.8342 12.2431 15.5674 11.9774L15.4831 11.9049C15.1891 11.6877 14.7724 11.7128 14.5067 11.9796L12.8721 13.6202V3.39551L12.8653 3.29374C12.8156 2.92766 12.5018 2.64551 12.1221 2.64551C11.7079 2.64551 11.3721 2.98129 11.3721 3.39551ZM17.9053 21.1176C20.2527 21.0088 22.1219 19.0718 22.1219 16.6974V11.8134L22.1171 11.6046C22.0082 9.25157 20.0674 7.37841 17.6879 7.37841H16.7549L16.6532 7.38525C16.2871 7.43492 16.0049 7.74871 16.0049 8.12841C16.0049 8.54262 16.3407 8.87841 16.7549 8.87841H17.6879L17.8604 8.88339C19.401 8.97261 20.6219 10.2497 20.6219 11.8134V16.6974L20.617 16.8693C20.528 18.405 19.255 19.6224 17.6969 19.6224H6.55695L6.38451 19.6174C4.84397 19.5281 3.62195 18.2503 3.62195 16.6874V11.8024L3.62691 11.6306C3.71591 10.096 4.98959 8.87841 6.54695 8.87841H7.48895L7.59072 8.87156C7.95679 8.8219 8.23895 8.5081 8.23895 8.12841C8.23895 7.71419 7.90316 7.37841 7.48895 7.37841H6.54695L6.3326 7.38351C3.98875 7.49533 2.12195 9.43118 2.12195 11.8024V16.6874L2.12678 16.8962C2.2358 19.2485 4.17771 21.1224 6.55695 21.1224H17.6969L17.9053 21.1176Z" fill="white"/>
</svg>
