<svg width="62" height="62" viewBox="0 0 62 62" fill="none" xmlns="http://www.w3.org/2000/svg">
<path d="M32.8164 26.7417H29.1836V29.1838H26.7415V32.8166H29.1836V35.2587H32.8164V32.8166H35.2585V29.1838H32.8164V26.7417Z" fill="white" fill-opacity="0.9"/>
<path d="M32.8164 26.7417H29.1836V29.1838H26.7415V32.8166H29.1836V35.2587H32.8164V32.8166H35.2585V29.1838H32.8164V26.7417Z" fill="url(#paint0_linear)"/>
<path d="M62 29.1836H58.5988C58.1671 22.4796 55.3499 16.2367 50.5565 11.4434C45.7633 6.65011 39.5204 3.83286 32.8164 3.40104V0H29.1836V3.40104C22.4796 3.83286 16.2367 6.65011 11.4435 11.4434C6.65011 16.2367 3.83286 22.4796 3.40116 29.1836H0V32.8164H3.40116C3.83286 39.5204 6.65011 45.7633 11.4435 50.5566C16.2367 55.35 22.4796 58.1673 29.1836 58.599V62H32.8164V58.599C39.5204 58.1673 45.7633 55.35 50.5565 50.5566C55.3499 45.7634 58.1671 39.5204 58.5988 32.8164H62V29.1836ZM54.9563 29.1836H45.9902C45.162 22.3068 39.6931 16.8378 32.8164 16.0097V7.04366C44.6187 7.93007 54.0699 17.3813 54.9563 29.1836ZM42.3224 32.8164C41.5439 37.687 37.687 41.544 32.8164 42.3224V39.3552H29.1836V42.3224C24.313 41.5439 20.4561 37.687 19.6776 32.8164H22.6447V29.1836H19.6776C20.4561 24.313 24.313 20.456 29.1836 19.6776V22.6448H32.8164V19.6776C37.687 20.4561 41.5439 24.313 42.3224 29.1836H39.3553V32.8164H42.3224ZM29.1836 7.04366V16.0097C22.3069 16.8378 16.838 22.3068 16.0098 29.1836H7.04366C7.93007 17.3813 17.3813 7.93007 29.1836 7.04366ZM7.04366 32.8164H16.0098C16.838 39.6932 22.3069 45.1622 29.1836 45.9903V54.9565C17.3813 54.0699 7.93007 44.6187 7.04366 32.8164ZM32.8164 54.9563V45.9902C39.6931 45.162 45.162 39.6931 45.9902 32.8163H54.9563C54.0699 44.6187 44.6187 54.0699 32.8164 54.9563Z" fill="white" fill-opacity="0.9"/>
<path d="M62 29.1836H58.5988C58.1671 22.4796 55.3499 16.2367 50.5565 11.4434C45.7633 6.65011 39.5204 3.83286 32.8164 3.40104V0H29.1836V3.40104C22.4796 3.83286 16.2367 6.65011 11.4435 11.4434C6.65011 16.2367 3.83286 22.4796 3.40116 29.1836H0V32.8164H3.40116C3.83286 39.5204 6.65011 45.7633 11.4435 50.5566C16.2367 55.35 22.4796 58.1673 29.1836 58.599V62H32.8164V58.599C39.5204 58.1673 45.7633 55.35 50.5565 50.5566C55.3499 45.7634 58.1671 39.5204 58.5988 32.8164H62V29.1836ZM54.9563 29.1836H45.9902C45.162 22.3068 39.6931 16.8378 32.8164 16.0097V7.04366C44.6187 7.93007 54.0699 17.3813 54.9563 29.1836ZM42.3224 32.8164C41.5439 37.687 37.687 41.544 32.8164 42.3224V39.3552H29.1836V42.3224C24.313 41.5439 20.4561 37.687 19.6776 32.8164H22.6447V29.1836H19.6776C20.4561 24.313 24.313 20.456 29.1836 19.6776V22.6448H32.8164V19.6776C37.687 20.4561 41.5439 24.313 42.3224 29.1836H39.3553V32.8164H42.3224ZM29.1836 7.04366V16.0097C22.3069 16.8378 16.838 22.3068 16.0098 29.1836H7.04366C7.93007 17.3813 17.3813 7.93007 29.1836 7.04366ZM7.04366 32.8164H16.0098C16.838 39.6932 22.3069 45.1622 29.1836 45.9903V54.9565C17.3813 54.0699 7.93007 44.6187 7.04366 32.8164ZM32.8164 54.9563V45.9902C39.6931 45.162 45.162 39.6931 45.9902 32.8163H54.9563C54.0699 44.6187 44.6187 54.0699 32.8164 54.9563Z" fill="url(#paint1_linear)"/>
<defs>
<linearGradient id="paint0_linear" x1="31" y1="26.7417" x2="31" y2="35.2587" gradientUnits="userSpaceOnUse">
<stop stop-color="#272727"/>
<stop offset="1" stop-color="#828282"/>
</linearGradient>
<linearGradient id="paint1_linear" x1="31" y1="0" x2="31" y2="62" gradientUnits="userSpaceOnUse">
<stop stop-color="#272727"/>
<stop offset="1" stop-color="#828282"/>
</linearGradient>
</defs>
</svg>
