<svg width="62" height="62" viewBox="0 0 62 62" fill="none" xmlns="http://www.w3.org/2000/svg">
<path d="M62 49.1641V1.9375H0V49.1641H23.6133V56.4297H19.9805V60.0625H42.0195V56.4297H38.3867V49.1641H62ZM3.63281 45.5312V40.6875H40.2031V37.0547H17.2211L26.9434 27.3324L32.3926 32.7817L47.4688 17.7055V22.1602H51.1016V11.2617H40.2031V14.8945H45.1422L32.3926 27.6441L26.9434 22.1949L12.0836 37.0547H3.63281V5.57031H58.3672V45.5312C56.9161 45.5312 5.09357 45.5312 3.63281 45.5312ZM34.7539 56.4297H27.2461V49.1641H34.7539V56.4297Z" fill="white" fill-opacity="0.9"/>
<path d="M62 49.1641V1.9375H0V49.1641H23.6133V56.4297H19.9805V60.0625H42.0195V56.4297H38.3867V49.1641H62ZM3.63281 45.5312V40.6875H40.2031V37.0547H17.2211L26.9434 27.3324L32.3926 32.7817L47.4688 17.7055V22.1602H51.1016V11.2617H40.2031V14.8945H45.1422L32.3926 27.6441L26.9434 22.1949L12.0836 37.0547H3.63281V5.57031H58.3672V45.5312C56.9161 45.5312 5.09357 45.5312 3.63281 45.5312ZM34.7539 56.4297H27.2461V49.1641H34.7539V56.4297Z" fill="url(#paint0_linear)"/>
<path d="M43.8359 37.0547H47.4688V40.6875H43.8359V37.0547Z" fill="white" fill-opacity="0.9"/>
<path d="M43.8359 37.0547H47.4688V40.6875H43.8359V37.0547Z" fill="url(#paint1_linear)"/>
<path d="M51.1016 37.0547H54.7344V40.6875H51.1016V37.0547Z" fill="white" fill-opacity="0.9"/>
<path d="M51.1016 37.0547H54.7344V40.6875H51.1016V37.0547Z" fill="url(#paint2_linear)"/>
<defs>
<linearGradient id="paint0_linear" x1="31" y1="1.9375" x2="31" y2="60.0625" gradientUnits="userSpaceOnUse">
<stop stop-color="#272727"/>
<stop offset="1" stop-color="#828282"/>
</linearGradient>
<linearGradient id="paint1_linear" x1="45.6523" y1="37.0547" x2="45.6523" y2="40.6875" gradientUnits="userSpaceOnUse">
<stop stop-color="#272727"/>
<stop offset="1" stop-color="#828282"/>
</linearGradient>
<linearGradient id="paint2_linear" x1="52.918" y1="37.0547" x2="52.918" y2="40.6875" gradientUnits="userSpaceOnUse">
<stop stop-color="#272727"/>
<stop offset="1" stop-color="#828282"/>
</linearGradient>
</defs>
</svg>
