<svg width="62" height="62" viewBox="0 0 62 62" fill="none" xmlns="http://www.w3.org/2000/svg">
<path d="M62 49.6315V3.6377H0V49.6315H20.3715V54.5662H13.5389V58.3621H48.4614V54.5662H41.6288V49.6315H62ZM3.79593 7.43362H58.2041V38.5602H3.79593V7.43362ZM37.8326 54.5662H24.1673V49.6315H37.8326V54.5662ZM3.79593 45.8356V42.3561H58.2041V45.8357H3.79593V45.8356Z" fill="white" fill-opacity="0.9"/>
<path d="M62 49.6315V3.6377H0V49.6315H20.3715V54.5662H13.5389V58.3621H48.4614V54.5662H41.6288V49.6315H62ZM3.79593 7.43362H58.2041V38.5602H3.79593V7.43362ZM37.8326 54.5662H24.1673V49.6315H37.8326V54.5662ZM3.79593 45.8356V42.3561H58.2041V45.8357H3.79593V45.8356Z" fill="url(#paint0_linear)"/>
<path d="M21.7387 24.3062C23.2149 23.1593 24.1673 21.3691 24.1673 19.3594C24.1673 15.9059 21.3575 13.0962 17.9041 13.0962C14.4506 13.0962 11.6409 15.9059 11.6409 19.3594C11.6409 21.3691 12.5933 23.1593 14.0694 24.3062C11.751 25.6393 10.1855 28.1395 10.1855 31.0001V32.898H25.6223V31.0001C25.6223 28.1395 24.0568 25.6393 21.7387 24.3062ZM17.9039 16.892C19.2644 16.892 20.3712 17.9989 20.3712 19.3593C20.3712 20.7196 19.2643 21.8267 17.9039 21.8267C16.5436 21.8267 15.4365 20.7198 15.4365 19.3593C15.4365 17.9988 16.5435 16.892 17.9039 16.892ZM14.4719 29.1022C15.1417 27.8959 16.429 27.0778 17.9039 27.0778C19.3787 27.0778 20.6661 27.8959 21.3359 29.1022H14.4719Z" fill="white" fill-opacity="0.9"/>
<path d="M21.7387 24.3062C23.2149 23.1593 24.1673 21.3691 24.1673 19.3594C24.1673 15.9059 21.3575 13.0962 17.9041 13.0962C14.4506 13.0962 11.6409 15.9059 11.6409 19.3594C11.6409 21.3691 12.5933 23.1593 14.0694 24.3062C11.751 25.6393 10.1855 28.1395 10.1855 31.0001V32.898H25.6223V31.0001C25.6223 28.1395 24.0568 25.6393 21.7387 24.3062ZM17.9039 16.892C19.2644 16.892 20.3712 17.9989 20.3712 19.3593C20.3712 20.7196 19.2643 21.8267 17.9039 21.8267C16.5436 21.8267 15.4365 20.7198 15.4365 19.3593C15.4365 17.9988 16.5435 16.892 17.9039 16.892ZM14.4719 29.1022C15.1417 27.8959 16.429 27.0778 17.9039 27.0778C19.3787 27.0778 20.6661 27.8959 21.3359 29.1022H14.4719Z" fill="url(#paint1_linear)"/>
<path d="M35.3653 13.0962H31V16.8921H35.3653V13.0962Z" fill="white" fill-opacity="0.9"/>
<path d="M35.3653 13.0962H31V16.8921H35.3653V13.0962Z" fill="url(#paint2_linear)"/>
<path d="M51.3716 13.0962H38.2756V16.8921H51.3716V13.0962Z" fill="white" fill-opacity="0.9"/>
<path d="M51.3716 13.0962H38.2756V16.8921H51.3716V13.0962Z" fill="url(#paint3_linear)"/>
<path d="M35.3653 21.0991H31V24.895H35.3653V21.0991Z" fill="white" fill-opacity="0.9"/>
<path d="M35.3653 21.0991H31V24.895H35.3653V21.0991Z" fill="url(#paint4_linear)"/>
<path d="M51.3716 21.0991H38.2756V24.895H51.3716V21.0991Z" fill="white" fill-opacity="0.9"/>
<path d="M51.3716 21.0991H38.2756V24.895H51.3716V21.0991Z" fill="url(#paint5_linear)"/>
<path d="M35.3653 29.1021H31V32.898H35.3653V29.1021Z" fill="white" fill-opacity="0.9"/>
<path d="M35.3653 29.1021H31V32.898H35.3653V29.1021Z" fill="url(#paint6_linear)"/>
<path d="M51.3716 29.1021H38.2756V32.898H51.3716V29.1021Z" fill="white" fill-opacity="0.9"/>
<path d="M51.3716 29.1021H38.2756V32.898H51.3716V29.1021Z" fill="url(#paint7_linear)"/>
<defs>
<linearGradient id="paint0_linear" x1="31" y1="3.6377" x2="31" y2="58.3621" gradientUnits="userSpaceOnUse">
<stop stop-color="#272727"/>
<stop offset="1" stop-color="#828282"/>
</linearGradient>
<linearGradient id="paint1_linear" x1="17.9039" y1="13.0962" x2="17.9039" y2="32.898" gradientUnits="userSpaceOnUse">
<stop stop-color="#272727"/>
<stop offset="1" stop-color="#828282"/>
</linearGradient>
<linearGradient id="paint2_linear" x1="33.1827" y1="13.0962" x2="33.1827" y2="16.8921" gradientUnits="userSpaceOnUse">
<stop stop-color="#272727"/>
<stop offset="1" stop-color="#828282"/>
</linearGradient>
<linearGradient id="paint3_linear" x1="44.8236" y1="13.0962" x2="44.8236" y2="16.8921" gradientUnits="userSpaceOnUse">
<stop stop-color="#272727"/>
<stop offset="1" stop-color="#828282"/>
</linearGradient>
<linearGradient id="paint4_linear" x1="33.1827" y1="21.0991" x2="33.1827" y2="24.895" gradientUnits="userSpaceOnUse">
<stop stop-color="#272727"/>
<stop offset="1" stop-color="#828282"/>
</linearGradient>
<linearGradient id="paint5_linear" x1="44.8236" y1="21.0991" x2="44.8236" y2="24.895" gradientUnits="userSpaceOnUse">
<stop stop-color="#272727"/>
<stop offset="1" stop-color="#828282"/>
</linearGradient>
<linearGradient id="paint6_linear" x1="33.1827" y1="29.1021" x2="33.1827" y2="32.898" gradientUnits="userSpaceOnUse">
<stop stop-color="#272727"/>
<stop offset="1" stop-color="#828282"/>
</linearGradient>
<linearGradient id="paint7_linear" x1="44.8236" y1="29.1021" x2="44.8236" y2="32.898" gradientUnits="userSpaceOnUse">
<stop stop-color="#272727"/>
<stop offset="1" stop-color="#828282"/>
</linearGradient>
</defs>
</svg>
