<svg width="62" height="62" viewBox="0 0 62 62" fill="none" xmlns="http://www.w3.org/2000/svg">
<g clip-path="url(#clip0)">
<path d="M46.059 34.8885L37.8981 43.0494C37.192 43.7463 36.0328 43.8038 35.3039 43.0998L17.5249 25.3207C16.8217 24.6175 16.8205 23.4338 17.5248 22.7311L25.7157 14.5427L12.6699 1.49707L3.98472 10.1799C0.995517 13.181 -0.441865 17.5286 0.119525 21.7229C0.607291 25.3668 1.5385 28.9419 2.88724 32.3481C7.43661 43.8468 16.7646 53.1729 28.2638 57.7207C35.3553 60.5282 44.3703 62.67 50.4278 56.6173L59.109 47.936L46.059 34.8885ZM46.0591 40.0258L53.9712 47.9363L51.0828 50.8247L43.1708 42.9126L46.0591 40.0258ZM20.5776 14.5424L17.6887 17.4305L9.78063 9.52244L12.6696 6.63423L20.5776 14.5424ZM47.6598 54.2438C45.5045 56.3105 42.3775 57.2948 39.296 56.8769C25.1821 54.9621 12.7778 45.6308 6.96653 32.639C5.34787 29.0203 4.24628 25.1705 3.72025 21.2409C3.23926 17.6476 4.72896 14.5728 7.2115 12.0908L15.1194 19.9987C12.9418 22.1457 12.7381 25.6716 14.9561 27.8895L32.7444 45.6778C34.9667 47.8289 38.4765 47.6653 40.6014 45.4807L48.5142 53.3935C48.2301 53.6776 47.9497 53.966 47.6598 54.2438Z" fill="white" fill-opacity="0.9"/>
<path d="M46.059 34.8885L37.8981 43.0494C37.192 43.7463 36.0328 43.8038 35.3039 43.0998L17.5249 25.3207C16.8217 24.6175 16.8205 23.4338 17.5248 22.7311L25.7157 14.5427L12.6699 1.49707L3.98472 10.1799C0.995517 13.181 -0.441865 17.5286 0.119525 21.7229C0.607291 25.3668 1.5385 28.9419 2.88724 32.3481C7.43661 43.8468 16.7646 53.1729 28.2638 57.7207C35.3553 60.5282 44.3703 62.67 50.4278 56.6173L59.109 47.936L46.059 34.8885ZM46.0591 40.0258L53.9712 47.9363L51.0828 50.8247L43.1708 42.9126L46.0591 40.0258ZM20.5776 14.5424L17.6887 17.4305L9.78063 9.52244L12.6696 6.63423L20.5776 14.5424ZM47.6598 54.2438C45.5045 56.3105 42.3775 57.2948 39.296 56.8769C25.1821 54.9621 12.7778 45.6308 6.96653 32.639C5.34787 29.0203 4.24628 25.1705 3.72025 21.2409C3.23926 17.6476 4.72896 14.5728 7.2115 12.0908L15.1194 19.9987C12.9418 22.1457 12.7381 25.6716 14.9561 27.8895L32.7444 45.6778C34.9667 47.8289 38.4765 47.6653 40.6014 45.4807L48.5142 53.3935C48.2301 53.6776 47.9497 53.966 47.6598 54.2438Z" fill="url(#paint0_linear)"/>
<path d="M29.7844 2.67139V29.1631L41.8435 23.3079H62.0001V2.67139H29.7844ZM58.3547 19.6451H41.0013L33.4473 23.3129V6.33423H58.3547V19.6451Z" fill="white" fill-opacity="0.9"/>
<path d="M29.7844 2.67139V29.1631L41.8435 23.3079H62.0001V2.67139H29.7844ZM58.3547 19.6451H41.0013L33.4473 23.3129V6.33423H58.3547V19.6451Z" fill="url(#paint1_linear)"/>
<path d="M36.9709 11.1733H40.4955V14.8062H36.9709V11.1733Z" fill="white" fill-opacity="0.9"/>
<path d="M36.9709 11.1733H40.4955V14.8062H36.9709V11.1733Z" fill="url(#paint2_linear)"/>
<path d="M44.1748 11.1733H47.6994V14.8062H44.1748V11.1733Z" fill="white" fill-opacity="0.9"/>
<path d="M44.1748 11.1733H47.6994V14.8062H44.1748V11.1733Z" fill="url(#paint3_linear)"/>
<path d="M51.3064 11.1733H54.831V14.8062H51.3064V11.1733Z" fill="white" fill-opacity="0.9"/>
<path d="M51.3064 11.1733H54.831V14.8062H51.3064V11.1733Z" fill="url(#paint4_linear)"/>
</g>
<defs>
<linearGradient id="paint0_linear" x1="29.5545" y1="1.49707" x2="29.5545" y2="60.5028" gradientUnits="userSpaceOnUse">
<stop stop-color="#272727"/>
<stop offset="1" stop-color="#828282"/>
</linearGradient>
<linearGradient id="paint1_linear" x1="45.8923" y1="2.67139" x2="45.8923" y2="29.1631" gradientUnits="userSpaceOnUse">
<stop stop-color="#272727"/>
<stop offset="1" stop-color="#828282"/>
</linearGradient>
<linearGradient id="paint2_linear" x1="38.7332" y1="11.1733" x2="38.7332" y2="14.8062" gradientUnits="userSpaceOnUse">
<stop stop-color="#272727"/>
<stop offset="1" stop-color="#828282"/>
</linearGradient>
<linearGradient id="paint3_linear" x1="45.9371" y1="11.1733" x2="45.9371" y2="14.8062" gradientUnits="userSpaceOnUse">
<stop stop-color="#272727"/>
<stop offset="1" stop-color="#828282"/>
</linearGradient>
<linearGradient id="paint4_linear" x1="53.0687" y1="11.1733" x2="53.0687" y2="14.8062" gradientUnits="userSpaceOnUse">
<stop stop-color="#272727"/>
<stop offset="1" stop-color="#828282"/>
</linearGradient>
<clipPath id="clip0">
<rect width="62" height="62" fill="white"/>
</clipPath>
</defs>
</svg>
