<svg width="39" height="39" viewBox="0 0 39 39" fill="none" xmlns="http://www.w3.org/2000/svg">
<path fill-rule="evenodd" clip-rule="evenodd" d="M22.1266 4.32359C22.2016 3.66146 22.7937 3.1745 23.4496 3.25968C29.9573 3.9861 35.0129 9.07102 35.7422 15.6232C35.8172 16.2854 35.3432 16.8832 34.6874 16.9555C34.6411 16.9604 34.5964 16.9636 34.5517 16.9636C33.9517 16.9636 33.433 16.5088 33.3644 15.8932C32.758 10.4676 28.5737 6.25696 23.1846 5.65429C22.5272 5.58036 22.0548 4.98573 22.1266 4.32359ZM6.23411 9.13585C5.41226 10.2737 5.46971 11.7329 6.3522 13.6856C6.62509 14.2915 6.36018 15.005 5.75855 15.2815C5.15852 15.5579 4.44678 15.2895 4.1739 14.6836C2.91958 11.9081 2.94192 9.59066 4.24411 7.80033C4.5186 7.33426 7.55545 3.40968 10.3976 3.59771C11.2195 3.66521 11.9727 4.05253 12.6812 4.74841C13.4329 5.48608 16.5974 9.36084 16.8511 10.5919C17.1238 11.9102 16.5362 12.9397 16.107 13.6917L16.1059 13.6936C15.683 14.4345 15.5362 14.7511 15.6814 15.1513C16.7506 17.7838 18.4007 19.9325 20.5694 21.493C21.1072 21.8819 21.2317 22.6324 20.8471 23.1756C20.6141 23.5035 20.2471 23.6803 19.8736 23.6803C19.6327 23.6803 19.3885 23.608 19.1778 23.4553C16.6357 21.6248 14.7079 19.1241 13.4472 16.0175C12.8935 14.4827 13.551 13.332 14.0313 12.4915C14.392 11.8615 14.5914 11.4855 14.5069 11.0837C14.2835 10.5035 11.9488 7.39694 11.0088 6.47446C10.7184 6.18678 10.4455 6.01803 10.2428 6.00196C9.16724 5.95214 6.76392 8.25193 6.23411 9.13585ZM24.5464 23.0538C25.44 22.4881 26.6656 21.7183 28.2215 22.0413C29.4423 22.2952 33.2883 25.4822 34.0224 26.2407C34.7134 26.9511 35.0979 27.7096 35.1634 28.4971C35.2671 31.4558 31.3286 34.5511 30.8786 34.8115C30.0184 35.4351 29.0115 35.75 27.88 35.75C26.7534 35.75 25.5023 35.4383 24.1474 34.8051C18.9354 32.6226 11.0536 25.5561 6.62364 19.0714C6.24862 18.5249 6.38586 17.7744 6.93004 17.3951C7.47421 17.0223 8.22106 17.1557 8.59448 17.7069C12.7325 23.7609 20.2967 30.5816 25.1113 32.5985C27.0598 33.5081 28.5104 33.5644 29.5876 32.7865C30.427 32.2722 32.8175 29.8825 32.7744 28.6385C32.7601 28.4923 32.5941 28.2175 32.3116 27.925C31.3924 26.9768 28.3093 24.6272 27.6646 24.3829C27.1507 24.2784 26.6273 24.5838 25.8214 25.0932L25.4065 25.3536C24.84 25.6959 24.1027 25.5095 23.7644 24.9422C23.4229 24.37 23.6064 23.6292 24.1729 23.2868L24.5464 23.0538ZM27.7251 16.0036C27.8368 16.5789 28.3379 16.9775 28.898 16.9775C28.9746 16.9775 29.0528 16.971 29.1294 16.9566C29.7789 16.8296 30.2018 16.1948 30.0757 15.5423C29.4278 12.1995 26.8649 9.61847 23.5456 8.96759C22.9057 8.8567 22.2689 9.26812 22.1413 9.92061C22.0152 10.5731 22.4397 11.2079 23.0876 11.3349C25.4446 11.7961 27.2655 13.6282 27.7251 16.0036Z" fill="#200E32"/>
</svg>
