<svg width="39" height="39" viewBox="0 0 39 39" fill="none" xmlns="http://www.w3.org/2000/svg">
<path fill-rule="evenodd" clip-rule="evenodd" d="M35.75 16.7488C35.75 17.3885 35.2352 17.9072 34.6001 17.9072L34.5857 17.8782C34.2807 17.8782 33.9882 17.7562 33.7726 17.5389C33.5569 17.3217 33.4358 17.027 33.4358 16.7198V14.374C33.3968 10.4318 30.2339 7.24554 26.3205 7.20631H12.6795C8.76608 7.24554 5.60318 10.4318 5.56424 14.374V24.626C5.60318 28.5682 8.76608 31.7545 12.6795 31.7937H26.3205C30.2339 31.7545 33.3968 28.5682 33.4358 24.626C33.5016 24.0323 33.9998 23.5832 34.5929 23.5832C35.1859 23.5832 35.6842 24.0323 35.75 24.626C35.7342 29.8655 31.5217 34.1091 26.3205 34.125H12.6795C7.47499 34.117 3.25792 29.8688 3.25 24.626V14.374C3.25 9.12785 7.47171 4.875 12.6795 4.875H26.3205C31.5217 4.8909 35.7342 9.13445 35.75 14.374V16.7488ZM20.7002 19.2682L27.3842 13.8816H27.3986C27.8963 13.4831 28.6194 13.5604 29.0229 14.0554C29.2151 14.2967 29.3035 14.6054 29.2684 14.9128C29.2333 15.2202 29.0776 15.5006 28.836 15.6916L22.152 21.0928C20.4525 22.4705 18.03 22.4705 16.3305 21.0928L9.63212 15.6916C9.14077 15.2851 9.06399 14.5568 9.45963 14.0554C9.64876 13.8151 9.92575 13.6614 10.2284 13.6287C10.5311 13.596 10.8342 13.6871 11.0695 13.8816L17.8254 19.2682C18.6693 19.9353 19.8563 19.9353 20.7002 19.2682Z" fill="#200E32"/>
</svg>
