<svg width="62" height="62" viewBox="0 0 62 62" fill="none" xmlns="http://www.w3.org/2000/svg">
<g clip-path="url(#clip0)">
<path d="M49.2353 0.074707L36.4706 6.45706V12.6899H25.5294V6.45706L12.7647 0.074707L0 6.45706V21.4758L12.7647 27.8581L25.5294 21.4758V16.3371H29.1765V33.4453L18.2353 38.9159V53.9346L31 60.317L43.7647 53.9346V38.9159L32.8235 33.4453V16.3369H36.4706V21.4756L49.2353 27.858L62 21.4756V6.45706L49.2353 0.074707ZM19.6283 7.584L12.7647 11.0159L5.90106 7.584L12.7647 4.15224L19.6283 7.584ZM3.64706 10.5345L10.9412 14.1817V22.8688L3.64706 19.2218V10.5345ZM14.5882 22.8688V14.1817L21.8824 10.5345V19.2218L14.5882 22.8688ZM31 43.4747L24.1364 40.0429L31 36.6111L37.8636 40.0428L31 43.4747ZM21.8824 42.9933L29.1765 46.6405V55.3277L21.8824 51.6806V42.9933ZM32.8235 55.3277V46.6405L40.1176 42.9933V51.6806L32.8235 55.3277ZM56.0989 7.584L49.2353 11.0159L42.3717 7.584L49.2353 4.15224L56.0989 7.584ZM40.1176 10.5345L47.4118 14.1817V22.8688L40.1176 19.2218V10.5345ZM51.0588 22.8688V14.1817L58.3529 10.5345V19.2218L51.0588 22.8688Z" fill="white" fill-opacity="0.9"/>
<path d="M49.2353 0.074707L36.4706 6.45706V12.6899H25.5294V6.45706L12.7647 0.074707L0 6.45706V21.4758L12.7647 27.8581L25.5294 21.4758V16.3371H29.1765V33.4453L18.2353 38.9159V53.9346L31 60.317L43.7647 53.9346V38.9159L32.8235 33.4453V16.3369H36.4706V21.4756L49.2353 27.858L62 21.4756V6.45706L49.2353 0.074707ZM19.6283 7.584L12.7647 11.0159L5.90106 7.584L12.7647 4.15224L19.6283 7.584ZM3.64706 10.5345L10.9412 14.1817V22.8688L3.64706 19.2218V10.5345ZM14.5882 22.8688V14.1817L21.8824 10.5345V19.2218L14.5882 22.8688ZM31 43.4747L24.1364 40.0429L31 36.6111L37.8636 40.0428L31 43.4747ZM21.8824 42.9933L29.1765 46.6405V55.3277L21.8824 51.6806V42.9933ZM32.8235 55.3277V46.6405L40.1176 42.9933V51.6806L32.8235 55.3277ZM56.0989 7.584L49.2353 11.0159L42.3717 7.584L49.2353 4.15224L56.0989 7.584ZM40.1176 10.5345L47.4118 14.1817V22.8688L40.1176 19.2218V10.5345ZM51.0588 22.8688V14.1817L58.3529 10.5345V19.2218L51.0588 22.8688Z" fill="url(#paint0_linear)"/>
<path d="M58.353 29.1018H62.0001V32.7489H58.353V29.1018Z" fill="white" fill-opacity="0.9"/>
<path d="M58.353 29.1018H62.0001V32.7489H58.353V29.1018Z" fill="url(#paint1_linear)"/>
<path d="M58.353 36.396H62.0001V40.0431H58.353V36.396Z" fill="white" fill-opacity="0.9"/>
<path d="M58.353 36.396H62.0001V40.0431H58.353V36.396Z" fill="url(#paint2_linear)"/>
<path d="M58.353 43.6899H62.0001V47.337H58.353V43.6899Z" fill="white" fill-opacity="0.9"/>
<path d="M58.353 43.6899H62.0001V47.337H58.353V43.6899Z" fill="url(#paint3_linear)"/>
<path d="M58.353 50.9839H62.0001V54.6309H58.353V50.9839Z" fill="white" fill-opacity="0.9"/>
<path d="M58.353 50.9839H62.0001V54.6309H58.353V50.9839Z" fill="url(#paint4_linear)"/>
<path d="M58.353 58.2783H62.0001V61.9254H58.353V58.2783Z" fill="white" fill-opacity="0.9"/>
<path d="M58.353 58.2783H62.0001V61.9254H58.353V58.2783Z" fill="url(#paint5_linear)"/>
<path d="M51.0588 58.2783H54.7059V61.9254H51.0588V58.2783Z" fill="white" fill-opacity="0.9"/>
<path d="M51.0588 58.2783H54.7059V61.9254H51.0588V58.2783Z" fill="url(#paint6_linear)"/>
<path d="M43.7648 58.2783H47.4118V61.9254H43.7648V58.2783Z" fill="white" fill-opacity="0.9"/>
<path d="M43.7648 58.2783H47.4118V61.9254H43.7648V58.2783Z" fill="url(#paint7_linear)"/>
<path d="M0 29.1018H3.64706V32.7489H0V29.1018Z" fill="white" fill-opacity="0.9"/>
<path d="M0 29.1018H3.64706V32.7489H0V29.1018Z" fill="url(#paint8_linear)"/>
<path d="M0 36.396H3.64706V40.0431H0V36.396Z" fill="white" fill-opacity="0.9"/>
<path d="M0 36.396H3.64706V40.0431H0V36.396Z" fill="url(#paint9_linear)"/>
<path d="M0 43.6899H3.64706V47.337H0V43.6899Z" fill="white" fill-opacity="0.9"/>
<path d="M0 43.6899H3.64706V47.337H0V43.6899Z" fill="url(#paint10_linear)"/>
<path d="M0 50.9839H3.64706V54.6309H0V50.9839Z" fill="white" fill-opacity="0.9"/>
<path d="M0 50.9839H3.64706V54.6309H0V50.9839Z" fill="url(#paint11_linear)"/>
<path d="M0 58.2783H3.64706V61.9254H0V58.2783Z" fill="white" fill-opacity="0.9"/>
<path d="M0 58.2783H3.64706V61.9254H0V58.2783Z" fill="url(#paint12_linear)"/>
<path d="M7.29407 58.2783H10.9411V61.9254H7.29407V58.2783Z" fill="white" fill-opacity="0.9"/>
<path d="M7.29407 58.2783H10.9411V61.9254H7.29407V58.2783Z" fill="url(#paint13_linear)"/>
<path d="M14.5883 58.2783H18.2353V61.9254H14.5883V58.2783Z" fill="white" fill-opacity="0.9"/>
<path d="M14.5883 58.2783H18.2353V61.9254H14.5883V58.2783Z" fill="url(#paint14_linear)"/>
</g>
<defs>
<linearGradient id="paint0_linear" x1="31" y1="0.074707" x2="31" y2="60.317" gradientUnits="userSpaceOnUse">
<stop stop-color="#272727"/>
<stop offset="1" stop-color="#828282"/>
</linearGradient>
<linearGradient id="paint1_linear" x1="60.1766" y1="29.1018" x2="60.1766" y2="32.7489" gradientUnits="userSpaceOnUse">
<stop stop-color="#272727"/>
<stop offset="1" stop-color="#828282"/>
</linearGradient>
<linearGradient id="paint2_linear" x1="60.1766" y1="36.396" x2="60.1766" y2="40.0431" gradientUnits="userSpaceOnUse">
<stop stop-color="#272727"/>
<stop offset="1" stop-color="#828282"/>
</linearGradient>
<linearGradient id="paint3_linear" x1="60.1766" y1="43.6899" x2="60.1766" y2="47.337" gradientUnits="userSpaceOnUse">
<stop stop-color="#272727"/>
<stop offset="1" stop-color="#828282"/>
</linearGradient>
<linearGradient id="paint4_linear" x1="60.1766" y1="50.9839" x2="60.1766" y2="54.6309" gradientUnits="userSpaceOnUse">
<stop stop-color="#272727"/>
<stop offset="1" stop-color="#828282"/>
</linearGradient>
<linearGradient id="paint5_linear" x1="60.1766" y1="58.2783" x2="60.1766" y2="61.9254" gradientUnits="userSpaceOnUse">
<stop stop-color="#272727"/>
<stop offset="1" stop-color="#828282"/>
</linearGradient>
<linearGradient id="paint6_linear" x1="52.8824" y1="58.2783" x2="52.8824" y2="61.9254" gradientUnits="userSpaceOnUse">
<stop stop-color="#272727"/>
<stop offset="1" stop-color="#828282"/>
</linearGradient>
<linearGradient id="paint7_linear" x1="45.5883" y1="58.2783" x2="45.5883" y2="61.9254" gradientUnits="userSpaceOnUse">
<stop stop-color="#272727"/>
<stop offset="1" stop-color="#828282"/>
</linearGradient>
<linearGradient id="paint8_linear" x1="1.82353" y1="29.1018" x2="1.82353" y2="32.7489" gradientUnits="userSpaceOnUse">
<stop stop-color="#272727"/>
<stop offset="1" stop-color="#828282"/>
</linearGradient>
<linearGradient id="paint9_linear" x1="1.82353" y1="36.396" x2="1.82353" y2="40.0431" gradientUnits="userSpaceOnUse">
<stop stop-color="#272727"/>
<stop offset="1" stop-color="#828282"/>
</linearGradient>
<linearGradient id="paint10_linear" x1="1.82353" y1="43.6899" x2="1.82353" y2="47.337" gradientUnits="userSpaceOnUse">
<stop stop-color="#272727"/>
<stop offset="1" stop-color="#828282"/>
</linearGradient>
<linearGradient id="paint11_linear" x1="1.82353" y1="50.9839" x2="1.82353" y2="54.6309" gradientUnits="userSpaceOnUse">
<stop stop-color="#272727"/>
<stop offset="1" stop-color="#828282"/>
</linearGradient>
<linearGradient id="paint12_linear" x1="1.82353" y1="58.2783" x2="1.82353" y2="61.9254" gradientUnits="userSpaceOnUse">
<stop stop-color="#272727"/>
<stop offset="1" stop-color="#828282"/>
</linearGradient>
<linearGradient id="paint13_linear" x1="9.1176" y1="58.2783" x2="9.1176" y2="61.9254" gradientUnits="userSpaceOnUse">
<stop stop-color="#272727"/>
<stop offset="1" stop-color="#828282"/>
</linearGradient>
<linearGradient id="paint14_linear" x1="16.4118" y1="58.2783" x2="16.4118" y2="61.9254" gradientUnits="userSpaceOnUse">
<stop stop-color="#272727"/>
<stop offset="1" stop-color="#828282"/>
</linearGradient>
<clipPath id="clip0">
<rect width="62" height="62" fill="white"/>
</clipPath>
</defs>
</svg>
