<svg width="62" height="62" viewBox="0 0 62 62" fill="none" xmlns="http://www.w3.org/2000/svg">
<path d="M49.2353 36.4706C46.3722 36.4706 43.7264 37.4181 41.5947 39.016L22.9841 20.4053C24.2364 18.7346 25.0884 16.7477 25.3986 14.5882H36.6014C37.489 20.7659 42.8159 25.5294 49.2353 25.5294C56.2738 25.5294 62 19.8032 62 12.7647C62 5.72625 56.2738 0 49.2353 0C42.8159 0 37.489 4.76355 36.6014 10.9412H25.3986C24.511 4.76355 19.184 0 12.7647 0C5.72625 0 0 5.72625 0 12.7647C0 19.1841 4.76355 24.511 10.9412 25.3986V36.6014C4.76355 37.489 0 42.816 0 49.2353C0 56.2738 5.72625 62 12.7647 62C19.8032 62 25.5294 56.2738 25.5294 49.2353C25.5294 42.816 20.7659 37.489 14.5882 36.6014V25.3986C16.7477 25.0884 18.7345 24.2364 20.4053 22.9841L39.016 41.5947C37.4181 43.7264 36.4706 46.3724 36.4706 49.2353C36.4706 56.2738 42.1967 62 49.2353 62C56.2739 62 62 56.2738 62 49.2353C62 42.1968 56.2738 36.4706 49.2353 36.4706ZM10.9412 12.7647C10.9412 11.7592 11.7592 10.9412 12.7647 10.9412C13.7702 10.9412 14.5882 11.7592 14.5882 12.7647C14.5882 13.7702 13.7702 14.5882 12.7647 14.5882C11.7592 14.5882 10.9412 13.7702 10.9412 12.7647ZM12.7647 18.2353C14.5256 18.2353 15.999 19.4899 16.3382 21.1521C15.2402 21.6216 14.0324 21.8824 12.7647 21.8824C11.497 21.8824 10.2892 21.6216 9.1912 21.1521C9.53037 19.4899 11.0038 18.2353 12.7647 18.2353ZM47.4118 12.7647C47.4118 11.7592 48.2297 10.9412 49.2353 10.9412C50.2408 10.9412 51.0588 11.7592 51.0588 12.7647C51.0588 13.7702 50.2408 14.5882 49.2353 14.5882C48.2297 14.5882 47.4118 13.7702 47.4118 12.7647ZM45.6618 21.1521C46.001 19.4899 47.4744 18.2353 49.2353 18.2353C50.9962 18.2353 52.4695 19.4899 52.8088 21.1521C51.7108 21.6216 50.503 21.8824 49.2353 21.8824C47.9676 21.8824 46.7598 21.6216 45.6618 21.1521ZM49.2353 3.64706C54.2628 3.64706 58.3529 7.73724 58.3529 12.7647C58.3529 15.1551 57.427 17.3325 55.9165 18.9602C55.4078 17.8018 54.6078 16.7994 53.608 16.048C54.2969 15.133 54.7059 13.9958 54.7059 12.7647C54.7059 9.74822 52.2518 7.29412 49.2353 7.29412C46.2187 7.29412 43.7647 9.74822 43.7647 12.7647C43.7647 13.9958 44.1737 15.133 44.8626 16.048C43.8627 16.7993 43.0626 17.8018 42.5541 18.9602C41.0436 17.3325 40.1176 15.1551 40.1176 12.7647C40.1176 7.73724 44.2078 3.64706 49.2353 3.64706ZM3.64706 12.7647C3.64706 7.73724 7.73724 3.64706 12.7647 3.64706C17.7922 3.64706 21.8824 7.73724 21.8824 12.7647C21.8824 15.1551 20.9564 17.3325 19.4459 18.9602C18.9372 17.8018 18.1372 16.7993 17.1373 16.048C17.8263 15.1329 18.2353 13.9958 18.2353 12.7647C18.2353 9.74822 15.7812 7.29412 12.7647 7.29412C9.74822 7.29412 7.29412 9.74822 7.29412 12.7647C7.29412 13.9958 7.70307 15.1329 8.392 16.048C7.3921 16.7993 6.59206 17.8018 6.08342 18.9602C4.57305 17.3325 3.64706 15.1551 3.64706 12.7647ZM10.9412 49.2353C10.9412 48.2298 11.7592 47.4118 12.7647 47.4118C13.7702 47.4118 14.5882 48.2298 14.5882 49.2353C14.5882 50.2408 13.7702 51.0588 12.7647 51.0588C11.7592 51.0588 10.9412 50.2408 10.9412 49.2353ZM9.1912 57.6227C9.53037 55.9604 11.0038 54.7059 12.7647 54.7059C14.5256 54.7059 15.999 55.9604 16.3382 57.6227C15.2402 58.0922 14.0324 58.3529 12.7647 58.3529C11.497 58.3529 10.2892 58.0922 9.1912 57.6227ZM21.8824 49.2353C21.8824 51.6257 20.9564 53.803 19.4459 55.4308C18.9372 54.2724 18.1372 53.2699 17.1373 52.5186C17.8263 51.6035 18.2353 50.4663 18.2353 49.2353C18.2353 46.2188 15.7812 43.7647 12.7647 43.7647C9.74822 43.7647 7.29412 46.2188 7.29412 49.2353C7.29412 50.4663 7.70307 51.6035 8.392 52.5186C7.3921 53.2699 6.59206 54.2724 6.08342 55.4308C4.57305 53.803 3.64706 51.6257 3.64706 49.2353C3.64706 44.2078 7.73724 40.1176 12.7647 40.1176C17.7922 40.1176 21.8824 44.2078 21.8824 49.2353ZM47.4118 49.2353C47.4118 48.2298 48.2297 47.4118 49.2353 47.4118C50.2408 47.4118 51.0588 48.2298 51.0588 49.2353C51.0588 50.2408 50.2408 51.0588 49.2353 51.0588C48.2297 51.0588 47.4118 50.2408 47.4118 49.2353ZM45.6618 57.6227C46.001 55.9604 47.4744 54.7059 49.2353 54.7059C50.9962 54.7059 52.4695 55.9604 52.8088 57.6227C51.7108 58.0922 50.503 58.3529 49.2353 58.3529C47.9676 58.3529 46.7598 58.0922 45.6618 57.6227ZM55.9165 55.4308C55.4078 54.2724 54.6078 53.27 53.608 52.5186C54.2969 51.6035 54.7059 50.4663 54.7059 49.2353C54.7059 46.2188 52.2518 43.7647 49.2353 43.7647C46.2187 43.7647 43.7647 46.2188 43.7647 49.2353C43.7647 50.4663 44.1737 51.6035 44.8626 52.5186C43.8627 53.2699 43.0626 54.2724 42.5541 55.4308C41.0436 53.8031 40.1176 51.6257 40.1176 49.2353C40.1176 44.2078 44.2078 40.1176 49.2353 40.1176C54.2628 40.1176 58.3529 44.2078 58.3529 49.2353C58.3529 51.6257 57.427 53.8031 55.9165 55.4308Z" fill="white" fill-opacity="0.9"/>
<path d="M49.2353 36.4706C46.3722 36.4706 43.7264 37.4181 41.5947 39.016L22.9841 20.4053C24.2364 18.7346 25.0884 16.7477 25.3986 14.5882H36.6014C37.489 20.7659 42.8159 25.5294 49.2353 25.5294C56.2738 25.5294 62 19.8032 62 12.7647C62 5.72625 56.2738 0 49.2353 0C42.8159 0 37.489 4.76355 36.6014 10.9412H25.3986C24.511 4.76355 19.184 0 12.7647 0C5.72625 0 0 5.72625 0 12.7647C0 19.1841 4.76355 24.511 10.9412 25.3986V36.6014C4.76355 37.489 0 42.816 0 49.2353C0 56.2738 5.72625 62 12.7647 62C19.8032 62 25.5294 56.2738 25.5294 49.2353C25.5294 42.816 20.7659 37.489 14.5882 36.6014V25.3986C16.7477 25.0884 18.7345 24.2364 20.4053 22.9841L39.016 41.5947C37.4181 43.7264 36.4706 46.3724 36.4706 49.2353C36.4706 56.2738 42.1967 62 49.2353 62C56.2739 62 62 56.2738 62 49.2353C62 42.1968 56.2738 36.4706 49.2353 36.4706ZM10.9412 12.7647C10.9412 11.7592 11.7592 10.9412 12.7647 10.9412C13.7702 10.9412 14.5882 11.7592 14.5882 12.7647C14.5882 13.7702 13.7702 14.5882 12.7647 14.5882C11.7592 14.5882 10.9412 13.7702 10.9412 12.7647ZM12.7647 18.2353C14.5256 18.2353 15.999 19.4899 16.3382 21.1521C15.2402 21.6216 14.0324 21.8824 12.7647 21.8824C11.497 21.8824 10.2892 21.6216 9.1912 21.1521C9.53037 19.4899 11.0038 18.2353 12.7647 18.2353ZM47.4118 12.7647C47.4118 11.7592 48.2297 10.9412 49.2353 10.9412C50.2408 10.9412 51.0588 11.7592 51.0588 12.7647C51.0588 13.7702 50.2408 14.5882 49.2353 14.5882C48.2297 14.5882 47.4118 13.7702 47.4118 12.7647ZM45.6618 21.1521C46.001 19.4899 47.4744 18.2353 49.2353 18.2353C50.9962 18.2353 52.4695 19.4899 52.8088 21.1521C51.7108 21.6216 50.503 21.8824 49.2353 21.8824C47.9676 21.8824 46.7598 21.6216 45.6618 21.1521ZM49.2353 3.64706C54.2628 3.64706 58.3529 7.73724 58.3529 12.7647C58.3529 15.1551 57.427 17.3325 55.9165 18.9602C55.4078 17.8018 54.6078 16.7994 53.608 16.048C54.2969 15.133 54.7059 13.9958 54.7059 12.7647C54.7059 9.74822 52.2518 7.29412 49.2353 7.29412C46.2187 7.29412 43.7647 9.74822 43.7647 12.7647C43.7647 13.9958 44.1737 15.133 44.8626 16.048C43.8627 16.7993 43.0626 17.8018 42.5541 18.9602C41.0436 17.3325 40.1176 15.1551 40.1176 12.7647C40.1176 7.73724 44.2078 3.64706 49.2353 3.64706ZM3.64706 12.7647C3.64706 7.73724 7.73724 3.64706 12.7647 3.64706C17.7922 3.64706 21.8824 7.73724 21.8824 12.7647C21.8824 15.1551 20.9564 17.3325 19.4459 18.9602C18.9372 17.8018 18.1372 16.7993 17.1373 16.048C17.8263 15.1329 18.2353 13.9958 18.2353 12.7647C18.2353 9.74822 15.7812 7.29412 12.7647 7.29412C9.74822 7.29412 7.29412 9.74822 7.29412 12.7647C7.29412 13.9958 7.70307 15.1329 8.392 16.048C7.3921 16.7993 6.59206 17.8018 6.08342 18.9602C4.57305 17.3325 3.64706 15.1551 3.64706 12.7647ZM10.9412 49.2353C10.9412 48.2298 11.7592 47.4118 12.7647 47.4118C13.7702 47.4118 14.5882 48.2298 14.5882 49.2353C14.5882 50.2408 13.7702 51.0588 12.7647 51.0588C11.7592 51.0588 10.9412 50.2408 10.9412 49.2353ZM9.1912 57.6227C9.53037 55.9604 11.0038 54.7059 12.7647 54.7059C14.5256 54.7059 15.999 55.9604 16.3382 57.6227C15.2402 58.0922 14.0324 58.3529 12.7647 58.3529C11.497 58.3529 10.2892 58.0922 9.1912 57.6227ZM21.8824 49.2353C21.8824 51.6257 20.9564 53.803 19.4459 55.4308C18.9372 54.2724 18.1372 53.2699 17.1373 52.5186C17.8263 51.6035 18.2353 50.4663 18.2353 49.2353C18.2353 46.2188 15.7812 43.7647 12.7647 43.7647C9.74822 43.7647 7.29412 46.2188 7.29412 49.2353C7.29412 50.4663 7.70307 51.6035 8.392 52.5186C7.3921 53.2699 6.59206 54.2724 6.08342 55.4308C4.57305 53.803 3.64706 51.6257 3.64706 49.2353C3.64706 44.2078 7.73724 40.1176 12.7647 40.1176C17.7922 40.1176 21.8824 44.2078 21.8824 49.2353ZM47.4118 49.2353C47.4118 48.2298 48.2297 47.4118 49.2353 47.4118C50.2408 47.4118 51.0588 48.2298 51.0588 49.2353C51.0588 50.2408 50.2408 51.0588 49.2353 51.0588C48.2297 51.0588 47.4118 50.2408 47.4118 49.2353ZM45.6618 57.6227C46.001 55.9604 47.4744 54.7059 49.2353 54.7059C50.9962 54.7059 52.4695 55.9604 52.8088 57.6227C51.7108 58.0922 50.503 58.3529 49.2353 58.3529C47.9676 58.3529 46.7598 58.0922 45.6618 57.6227ZM55.9165 55.4308C55.4078 54.2724 54.6078 53.27 53.608 52.5186C54.2969 51.6035 54.7059 50.4663 54.7059 49.2353C54.7059 46.2188 52.2518 43.7647 49.2353 43.7647C46.2187 43.7647 43.7647 46.2188 43.7647 49.2353C43.7647 50.4663 44.1737 51.6035 44.8626 52.5186C43.8627 53.2699 43.0626 54.2724 42.5541 55.4308C41.0436 53.8031 40.1176 51.6257 40.1176 49.2353C40.1176 44.2078 44.2078 40.1176 49.2353 40.1176C54.2628 40.1176 58.3529 44.2078 58.3529 49.2353C58.3529 51.6257 57.427 53.8031 55.9165 55.4308Z" fill="url(#paint0_linear)"/>
<defs>
<linearGradient id="paint0_linear" x1="31" y1="0" x2="31" y2="62" gradientUnits="userSpaceOnUse">
<stop stop-color="#272727"/>
<stop offset="1" stop-color="#828282"/>
</linearGradient>
</defs>
</svg>
