<svg width="62" height="62" viewBox="0 0 62 62" fill="none" xmlns="http://www.w3.org/2000/svg">
<path d="M0 0V62H62V0H0ZM58.3672 14.5312H3.63281V10.8984H28.1195L35.3852 3.63281H58.3672V14.5312ZM30.2476 3.63281L26.6148 7.26562H3.63281V3.63281H30.2476ZM3.63281 58.3672V18.1641H58.3672V58.3672H3.63281Z" fill="white" fill-opacity="0.9"/>
<path d="M0 0V62H62V0H0ZM58.3672 14.5312H3.63281V10.8984H28.1195L35.3852 3.63281H58.3672V14.5312ZM30.2476 3.63281L26.6148 7.26562H3.63281V3.63281H30.2476ZM3.63281 58.3672V18.1641H58.3672V58.3672H3.63281Z" fill="url(#paint0_linear)"/>
<path d="M7.26562 54.7344H54.7344V21.7969H7.26562V54.7344ZM10.8984 51.1016V32.6953H51.1016V51.1016H10.8984ZM25.5105 29.0625V25.4297H36.4895V29.0625H25.5105ZM51.1016 29.0625H40.1224V25.4297H51.1016V29.0625ZM21.8776 25.4297V29.0625H10.8984V25.4297H21.8776Z" fill="white" fill-opacity="0.9"/>
<path d="M7.26562 54.7344H54.7344V21.7969H7.26562V54.7344ZM10.8984 51.1016V32.6953H51.1016V51.1016H10.8984ZM25.5105 29.0625V25.4297H36.4895V29.0625H25.5105ZM51.1016 29.0625H40.1224V25.4297H51.1016V29.0625ZM21.8776 25.4297V29.0625H10.8984V25.4297H21.8776Z" fill="url(#paint1_linear)"/>
<path d="M43.8359 7.26562H47.4688V10.8984H43.8359V7.26562Z" fill="white" fill-opacity="0.9"/>
<path d="M43.8359 7.26562H47.4688V10.8984H43.8359V7.26562Z" fill="url(#paint2_linear)"/>
<path d="M51.1016 7.26562H54.7344V10.8984H51.1016V7.26562Z" fill="white" fill-opacity="0.9"/>
<path d="M51.1016 7.26562H54.7344V10.8984H51.1016V7.26562Z" fill="url(#paint3_linear)"/>
<path d="M36.5703 7.26562H40.2031V10.8984H36.5703V7.26562Z" fill="white" fill-opacity="0.9"/>
<path d="M36.5703 7.26562H40.2031V10.8984H36.5703V7.26562Z" fill="url(#paint4_linear)"/>
<defs>
<linearGradient id="paint0_linear" x1="31" y1="0" x2="31" y2="62" gradientUnits="userSpaceOnUse">
<stop stop-color="#272727"/>
<stop offset="1" stop-color="#828282"/>
</linearGradient>
<linearGradient id="paint1_linear" x1="31" y1="21.7969" x2="31" y2="54.7344" gradientUnits="userSpaceOnUse">
<stop stop-color="#272727"/>
<stop offset="1" stop-color="#828282"/>
</linearGradient>
<linearGradient id="paint2_linear" x1="45.6523" y1="7.26562" x2="45.6523" y2="10.8984" gradientUnits="userSpaceOnUse">
<stop stop-color="#272727"/>
<stop offset="1" stop-color="#828282"/>
</linearGradient>
<linearGradient id="paint3_linear" x1="52.918" y1="7.26562" x2="52.918" y2="10.8984" gradientUnits="userSpaceOnUse">
<stop stop-color="#272727"/>
<stop offset="1" stop-color="#828282"/>
</linearGradient>
<linearGradient id="paint4_linear" x1="38.3867" y1="7.26562" x2="38.3867" y2="10.8984" gradientUnits="userSpaceOnUse">
<stop stop-color="#272727"/>
<stop offset="1" stop-color="#828282"/>
</linearGradient>
</defs>
</svg>
