<svg width="15" height="15" viewBox="0 0 15 15" fill="none" xmlns="http://www.w3.org/2000/svg">
<path fill-rule="evenodd" clip-rule="evenodd" d="M6.87501 1.6062H8.12501V4.7312H6.87501V1.6062ZM12.3438 3.38745L13.225 4.2687C13.1563 4.28745 11 6.48745 11 6.48745L10.1188 5.6062L12.3438 3.38745ZM7.5 7.8562C10.3375 7.8562 12.9125 8.9687 14.8187 10.775C14.9312 10.8875 15 11.0437 15 11.2125C15 11.3875 14.9312 11.5437 14.8187 11.6562L13.2687 13.2062C13.1562 13.3187 13 13.3875 12.825 13.3875C12.6562 13.3875 12.5 13.325 12.3875 13.2125C11.8938 12.7562 11.3375 12.3625 10.725 12.0562C10.5188 11.9562 10.375 11.7375 10.375 11.4937V9.5562C9.46875 9.26245 8.5 9.1062 7.5 9.1062C6.5 9.1062 5.53125 9.26245 4.625 9.56245V11.5C4.625 11.75 4.48125 11.9625 4.275 12.0625C3.66875 12.3687 3.10625 12.7562 2.6125 13.2187C2.5 13.325 2.34375 13.3937 2.175 13.3937C2 13.3937 1.84375 13.325 1.73125 13.2125L0.18125 11.6625C0.06875 11.55 0 11.3937 0 11.2187C0 11.0437 0.06875 10.8875 0.18125 10.775C2.0875 8.9687 4.6625 7.8562 7.5 7.8562ZM2.20627 11.9187C2.56877 11.625 2.96252 11.3562 3.37502 11.125H3.38127V10.0625C2.72502 10.3812 2.10627 10.7812 1.53752 11.25L2.20627 11.9187ZM12.7938 11.9124C12.425 11.6124 12.0375 11.3499 11.625 11.1187V10.0562C12.275 10.3749 12.8938 10.7749 13.4625 11.2437L12.7938 11.9124ZM4.88127 5.6062L4.00002 6.48745C4.00002 6.48745 1.84377 4.28745 1.77502 4.2687L2.66252 3.3812L4.88127 5.6062Z" fill="black"/>
</svg>
