<svg width="62" height="62" viewBox="0 0 62 62" fill="none" xmlns="http://www.w3.org/2000/svg">
<path d="M62 52.4941V0H0V52.4941H23.8151V58.3672H16.3477V62H45.6523V58.3672H38.1849V52.4941H62ZM58.3672 3.63281V41.5957H3.63281V3.63281H58.3672ZM3.63281 48.8613V45.2285H58.3672V48.8613H3.63281ZM34.552 58.3672H27.4478V52.4941H34.552V58.3672Z" fill="white" fill-opacity="0.9"/>
<path d="M62 52.4941V0H0V52.4941H23.8151V58.3672H16.3477V62H45.6523V58.3672H38.1849V52.4941H62ZM58.3672 3.63281V41.5957H3.63281V3.63281H58.3672ZM3.63281 48.8613V45.2285H58.3672V48.8613H3.63281ZM34.552 58.3672H27.4478V52.4941H34.552V58.3672Z" fill="url(#paint0_linear)"/>
<path d="M40.1469 21.5919L47.2531 16.2684V14.336L40.1469 9.01245L37.9689 11.9199L42.4837 15.3022L37.9689 18.6845L40.1469 21.5919Z" fill="white" fill-opacity="0.9"/>
<path d="M40.1469 21.5919L47.2531 16.2684V14.336L40.1469 9.01245L37.9689 11.9199L42.4837 15.3022L37.9689 18.6845L40.1469 21.5919Z" fill="url(#paint1_linear)"/>
<path d="M24.0312 18.6845L19.5163 15.3022L24.0312 11.9199L21.8531 9.01245L14.7469 14.336V16.2684L21.8531 21.5919L24.0312 18.6845Z" fill="white" fill-opacity="0.9"/>
<path d="M24.0312 18.6845L19.5163 15.3022L24.0312 11.9199L21.8531 9.01245L14.7469 14.336V16.2684L21.8531 21.5919L24.0312 18.6845Z" fill="url(#paint2_linear)"/>
<path d="M26.3915 21.0498L32.3433 8.03011L35.6492 9.54137L29.6973 22.5611L26.3915 21.0498Z" fill="white" fill-opacity="0.9"/>
<path d="M26.3915 21.0498L32.3433 8.03011L35.6492 9.54137L29.6973 22.5611L26.3915 21.0498Z" fill="url(#paint3_linear)"/>
<path d="M22.4629 27.0645H39.5372V30.6973H22.4629V27.0645Z" fill="white" fill-opacity="0.9"/>
<path d="M22.4629 27.0645H39.5372V30.6973H22.4629V27.0645Z" fill="url(#paint4_linear)"/>
<path d="M19.1833 34.3301H42.8167V37.9629H19.1833V34.3301Z" fill="white" fill-opacity="0.9"/>
<path d="M19.1833 34.3301H42.8167V37.9629H19.1833V34.3301Z" fill="url(#paint5_linear)"/>
<defs>
<linearGradient id="paint0_linear" x1="31" y1="0" x2="31" y2="62" gradientUnits="userSpaceOnUse">
<stop stop-color="#272727"/>
<stop offset="1" stop-color="#828282"/>
</linearGradient>
<linearGradient id="paint1_linear" x1="42.611" y1="9.01245" x2="42.611" y2="21.5919" gradientUnits="userSpaceOnUse">
<stop stop-color="#272727"/>
<stop offset="1" stop-color="#828282"/>
</linearGradient>
<linearGradient id="paint2_linear" x1="19.3891" y1="9.01245" x2="19.3891" y2="21.5919" gradientUnits="userSpaceOnUse">
<stop stop-color="#272727"/>
<stop offset="1" stop-color="#828282"/>
</linearGradient>
<linearGradient id="paint3_linear" x1="29.3674" y1="14.54" x2="32.6733" y2="16.0512" gradientUnits="userSpaceOnUse">
<stop stop-color="#272727"/>
<stop offset="1" stop-color="#828282"/>
</linearGradient>
<linearGradient id="paint4_linear" x1="31.0001" y1="27.0645" x2="31.0001" y2="30.6973" gradientUnits="userSpaceOnUse">
<stop stop-color="#272727"/>
<stop offset="1" stop-color="#828282"/>
</linearGradient>
<linearGradient id="paint5_linear" x1="31" y1="34.3301" x2="31" y2="37.9629" gradientUnits="userSpaceOnUse">
<stop stop-color="#272727"/>
<stop offset="1" stop-color="#828282"/>
</linearGradient>
</defs>
</svg>
