<svg width="62" height="62" viewBox="0 0 62 62" fill="none" xmlns="http://www.w3.org/2000/svg">
<path d="M0 0V62H62V0H0ZM58.3672 3.63281V8.05273H32.7944L28.1928 14.2083H3.63281V3.63281H58.3672ZM3.63281 58.3672V17.8411H30.0128L34.6144 11.6855H58.3672V58.3672H3.63281Z" fill="white" fill-opacity="0.9"/>
<path d="M0 0V62H62V0H0ZM58.3672 3.63281V8.05273H32.7944L28.1928 14.2083H3.63281V3.63281H58.3672ZM3.63281 58.3672V17.8411H30.0128L34.6144 11.6855H58.3672V58.3672H3.63281Z" fill="url(#paint0_linear)"/>
<path d="M7.59863 6.88208H11.2314V10.5149H7.59863V6.88208Z" fill="white" fill-opacity="0.9"/>
<path d="M7.59863 6.88208H11.2314V10.5149H7.59863V6.88208Z" fill="url(#paint1_linear)"/>
<path d="M15.051 6.88208H18.6838V10.5149H15.051V6.88208Z" fill="white" fill-opacity="0.9"/>
<path d="M15.051 6.88208H18.6838V10.5149H15.051V6.88208Z" fill="url(#paint2_linear)"/>
<path d="M22.5032 6.88208H26.136V10.5149H22.5032V6.88208Z" fill="white" fill-opacity="0.9"/>
<path d="M22.5032 6.88208H26.136V10.5149H22.5032V6.88208Z" fill="url(#paint3_linear)"/>
<path d="M31 21.7202C27.5947 21.7202 24.8242 24.4907 24.8242 27.896C24.8242 31.3013 27.5947 34.0718 31 34.0718C34.4053 34.0718 37.1758 31.3013 37.1758 27.896C37.1758 24.4907 34.4053 21.7202 31 21.7202ZM31 30.439C29.5979 30.439 28.457 29.2981 28.457 27.896C28.457 26.4939 29.5979 25.353 31 25.353C32.4021 25.353 33.543 26.4939 33.543 27.896C33.543 29.2981 32.4021 30.439 31 30.439Z" fill="white" fill-opacity="0.9"/>
<path d="M31 21.7202C27.5947 21.7202 24.8242 24.4907 24.8242 27.896C24.8242 31.3013 27.5947 34.0718 31 34.0718C34.4053 34.0718 37.1758 31.3013 37.1758 27.896C37.1758 24.4907 34.4053 21.7202 31 21.7202ZM31 30.439C29.5979 30.439 28.457 29.2981 28.457 27.896C28.457 26.4939 29.5979 25.353 31 25.353C32.4021 25.353 33.543 26.4939 33.543 27.896C33.543 29.2981 32.4021 30.439 31 30.439Z" fill="url(#paint4_linear)"/>
<path d="M24.9453 37.1355H37.0547V40.7683H24.9453V37.1355Z" fill="white" fill-opacity="0.9"/>
<path d="M24.9453 37.1355H37.0547V40.7683H24.9453V37.1355Z" fill="url(#paint5_linear)"/>
<path d="M24.9453 44.2395H37.0547V47.8723H24.9453V44.2395Z" fill="white" fill-opacity="0.9"/>
<path d="M24.9453 44.2395H37.0547V47.8723H24.9453V44.2395Z" fill="url(#paint6_linear)"/>
<path d="M24.9453 51.3438H37.0547V54.9766H24.9453V51.3438Z" fill="white" fill-opacity="0.9"/>
<path d="M24.9453 51.3438H37.0547V54.9766H24.9453V51.3438Z" fill="url(#paint7_linear)"/>
<path d="M14.4763 21.7202C11.071 21.7202 8.30054 24.4907 8.30054 27.896C8.30054 31.3013 11.071 34.0718 14.4763 34.0718C17.8816 34.0718 20.6521 31.3013 20.6521 27.896C20.6521 24.4907 17.8816 21.7202 14.4763 21.7202ZM14.4763 30.439C13.0742 30.439 11.9334 29.2981 11.9334 27.896C11.9334 26.4939 13.0742 25.353 14.4763 25.353C15.8785 25.353 17.0193 26.4939 17.0193 27.896C17.0193 29.2981 15.8785 30.439 14.4763 30.439Z" fill="white" fill-opacity="0.9"/>
<path d="M14.4763 21.7202C11.071 21.7202 8.30054 24.4907 8.30054 27.896C8.30054 31.3013 11.071 34.0718 14.4763 34.0718C17.8816 34.0718 20.6521 31.3013 20.6521 27.896C20.6521 24.4907 17.8816 21.7202 14.4763 21.7202ZM14.4763 30.439C13.0742 30.439 11.9334 29.2981 11.9334 27.896C11.9334 26.4939 13.0742 25.353 14.4763 25.353C15.8785 25.353 17.0193 26.4939 17.0193 27.896C17.0193 29.2981 15.8785 30.439 14.4763 30.439Z" fill="url(#paint8_linear)"/>
<path d="M8.42163 37.1355H20.531V40.7683H8.42163V37.1355Z" fill="white" fill-opacity="0.9"/>
<path d="M8.42163 37.1355H20.531V40.7683H8.42163V37.1355Z" fill="url(#paint9_linear)"/>
<path d="M8.42163 44.2395H20.531V47.8723H8.42163V44.2395Z" fill="white" fill-opacity="0.9"/>
<path d="M8.42163 44.2395H20.531V47.8723H8.42163V44.2395Z" fill="url(#paint10_linear)"/>
<path d="M8.42163 51.3438H20.531V54.9766H8.42163V51.3438Z" fill="white" fill-opacity="0.9"/>
<path d="M8.42163 51.3438H20.531V54.9766H8.42163V51.3438Z" fill="url(#paint11_linear)"/>
<path d="M47.5237 21.7202C44.1184 21.7202 41.3479 24.4907 41.3479 27.896C41.3479 31.3013 44.1184 34.0718 47.5237 34.0718C50.929 34.0718 53.6995 31.3013 53.6995 27.896C53.6995 24.4907 50.929 21.7202 47.5237 21.7202ZM47.5237 30.439C46.1215 30.439 44.9807 29.2981 44.9807 27.896C44.9807 26.4939 46.1215 25.353 47.5237 25.353C48.9258 25.353 50.0667 26.4939 50.0667 27.896C50.0667 29.2981 48.9258 30.439 47.5237 30.439Z" fill="white" fill-opacity="0.9"/>
<path d="M47.5237 21.7202C44.1184 21.7202 41.3479 24.4907 41.3479 27.896C41.3479 31.3013 44.1184 34.0718 47.5237 34.0718C50.929 34.0718 53.6995 31.3013 53.6995 27.896C53.6995 24.4907 50.929 21.7202 47.5237 21.7202ZM47.5237 30.439C46.1215 30.439 44.9807 29.2981 44.9807 27.896C44.9807 26.4939 46.1215 25.353 47.5237 25.353C48.9258 25.353 50.0667 26.4939 50.0667 27.896C50.0667 29.2981 48.9258 30.439 47.5237 30.439Z" fill="url(#paint12_linear)"/>
<path d="M41.469 37.1355H53.5784V40.7683H41.469V37.1355Z" fill="white" fill-opacity="0.9"/>
<path d="M41.469 37.1355H53.5784V40.7683H41.469V37.1355Z" fill="url(#paint13_linear)"/>
<path d="M41.469 44.2395H53.5784V47.8723H41.469V44.2395Z" fill="white" fill-opacity="0.9"/>
<path d="M41.469 44.2395H53.5784V47.8723H41.469V44.2395Z" fill="url(#paint14_linear)"/>
<path d="M41.469 51.3438H53.5784V54.9766H41.469V51.3438Z" fill="white" fill-opacity="0.9"/>
<path d="M41.469 51.3438H53.5784V54.9766H41.469V51.3438Z" fill="url(#paint15_linear)"/>
<defs>
<linearGradient id="paint0_linear" x1="31" y1="0" x2="31" y2="62" gradientUnits="userSpaceOnUse">
<stop stop-color="#272727"/>
<stop offset="1" stop-color="#828282"/>
</linearGradient>
<linearGradient id="paint1_linear" x1="9.41504" y1="6.88208" x2="9.41504" y2="10.5149" gradientUnits="userSpaceOnUse">
<stop stop-color="#272727"/>
<stop offset="1" stop-color="#828282"/>
</linearGradient>
<linearGradient id="paint2_linear" x1="16.8674" y1="6.88208" x2="16.8674" y2="10.5149" gradientUnits="userSpaceOnUse">
<stop stop-color="#272727"/>
<stop offset="1" stop-color="#828282"/>
</linearGradient>
<linearGradient id="paint3_linear" x1="24.3196" y1="6.88208" x2="24.3196" y2="10.5149" gradientUnits="userSpaceOnUse">
<stop stop-color="#272727"/>
<stop offset="1" stop-color="#828282"/>
</linearGradient>
<linearGradient id="paint4_linear" x1="31" y1="21.7202" x2="31" y2="34.0718" gradientUnits="userSpaceOnUse">
<stop stop-color="#272727"/>
<stop offset="1" stop-color="#828282"/>
</linearGradient>
<linearGradient id="paint5_linear" x1="31" y1="37.1355" x2="31" y2="40.7683" gradientUnits="userSpaceOnUse">
<stop stop-color="#272727"/>
<stop offset="1" stop-color="#828282"/>
</linearGradient>
<linearGradient id="paint6_linear" x1="31" y1="44.2395" x2="31" y2="47.8723" gradientUnits="userSpaceOnUse">
<stop stop-color="#272727"/>
<stop offset="1" stop-color="#828282"/>
</linearGradient>
<linearGradient id="paint7_linear" x1="31" y1="51.3438" x2="31" y2="54.9766" gradientUnits="userSpaceOnUse">
<stop stop-color="#272727"/>
<stop offset="1" stop-color="#828282"/>
</linearGradient>
<linearGradient id="paint8_linear" x1="14.4763" y1="21.7202" x2="14.4763" y2="34.0718" gradientUnits="userSpaceOnUse">
<stop stop-color="#272727"/>
<stop offset="1" stop-color="#828282"/>
</linearGradient>
<linearGradient id="paint9_linear" x1="14.4763" y1="37.1355" x2="14.4763" y2="40.7683" gradientUnits="userSpaceOnUse">
<stop stop-color="#272727"/>
<stop offset="1" stop-color="#828282"/>
</linearGradient>
<linearGradient id="paint10_linear" x1="14.4763" y1="44.2395" x2="14.4763" y2="47.8723" gradientUnits="userSpaceOnUse">
<stop stop-color="#272727"/>
<stop offset="1" stop-color="#828282"/>
</linearGradient>
<linearGradient id="paint11_linear" x1="14.4763" y1="51.3438" x2="14.4763" y2="54.9766" gradientUnits="userSpaceOnUse">
<stop stop-color="#272727"/>
<stop offset="1" stop-color="#828282"/>
</linearGradient>
<linearGradient id="paint12_linear" x1="47.5237" y1="21.7202" x2="47.5237" y2="34.0718" gradientUnits="userSpaceOnUse">
<stop stop-color="#272727"/>
<stop offset="1" stop-color="#828282"/>
</linearGradient>
<linearGradient id="paint13_linear" x1="47.5237" y1="37.1355" x2="47.5237" y2="40.7683" gradientUnits="userSpaceOnUse">
<stop stop-color="#272727"/>
<stop offset="1" stop-color="#828282"/>
</linearGradient>
<linearGradient id="paint14_linear" x1="47.5237" y1="44.2395" x2="47.5237" y2="47.8723" gradientUnits="userSpaceOnUse">
<stop stop-color="#272727"/>
<stop offset="1" stop-color="#828282"/>
</linearGradient>
<linearGradient id="paint15_linear" x1="47.5237" y1="51.3438" x2="47.5237" y2="54.9766" gradientUnits="userSpaceOnUse">
<stop stop-color="#272727"/>
<stop offset="1" stop-color="#828282"/>
</linearGradient>
</defs>
</svg>
