<svg width="62" height="62" viewBox="0 0 62 62" fill="none" xmlns="http://www.w3.org/2000/svg">
<path d="M0 0V62H62V0H0ZM58.3672 58.3672H3.63281V3.63281H58.3672V58.3672Z" fill="white" fill-opacity="0.9"/>
<path d="M0 0V62H62V0H0ZM58.3672 58.3672H3.63281V3.63281H58.3672V58.3672Z" fill="url(#paint0_linear)"/>
<path d="M54.6133 14.6523H7.38672V54.6133H54.6133V14.6523ZM50.9805 50.9805H11.0195V18.2852H50.9805V50.9805Z" fill="white" fill-opacity="0.9"/>
<path d="M54.6133 14.6523H7.38672V54.6133H54.6133V14.6523ZM50.9805 50.9805H11.0195V18.2852H50.9805V50.9805Z" fill="url(#paint1_linear)"/>
<path d="M25.65 44.9434L32.9104 23.1392L36.358 24.2871L29.0976 46.0913L25.65 44.9434Z" fill="white" fill-opacity="0.9"/>
<path d="M25.65 44.9434L32.9104 23.1392L36.358 24.2871L29.0976 46.0913L25.65 44.9434Z" fill="url(#paint2_linear)"/>
<path d="M37.5986 38.3663L40.2262 40.8747L46.2825 34.531L39.9386 28.4749L37.4302 31.1026L41.1463 34.6502L37.5986 38.3663Z" fill="white" fill-opacity="0.9"/>
<path d="M37.5986 38.3663L40.2262 40.8747L46.2825 34.531L39.9386 28.4749L37.4302 31.1026L41.1463 34.6502L37.5986 38.3663Z" fill="url(#paint3_linear)"/>
<path d="M24.3171 38.3663L20.7695 34.6502L24.4856 31.1026L21.977 28.4749L15.6333 34.531L21.6893 40.8747L24.3171 38.3663Z" fill="white" fill-opacity="0.9"/>
<path d="M24.3171 38.3663L20.7695 34.6502L24.4856 31.1026L21.977 28.4749L15.6333 34.531L21.6893 40.8747L24.3171 38.3663Z" fill="url(#paint4_linear)"/>
<path d="M50.9805 7.38672H54.6133V11.0195H50.9805V7.38672Z" fill="white" fill-opacity="0.9"/>
<path d="M50.9805 7.38672H54.6133V11.0195H50.9805V7.38672Z" fill="url(#paint5_linear)"/>
<path d="M43.7148 7.38672H47.3477V11.0195H43.7148V7.38672Z" fill="white" fill-opacity="0.9"/>
<path d="M43.7148 7.38672H47.3477V11.0195H43.7148V7.38672Z" fill="url(#paint6_linear)"/>
<path d="M36.4492 7.38672H40.082V11.0195H36.4492V7.38672Z" fill="white" fill-opacity="0.9"/>
<path d="M36.4492 7.38672H40.082V11.0195H36.4492V7.38672Z" fill="url(#paint7_linear)"/>
<defs>
<linearGradient id="paint0_linear" x1="31" y1="0" x2="31" y2="62" gradientUnits="userSpaceOnUse">
<stop stop-color="#272727"/>
<stop offset="1" stop-color="#828282"/>
</linearGradient>
<linearGradient id="paint1_linear" x1="31" y1="14.6523" x2="31" y2="54.6133" gradientUnits="userSpaceOnUse">
<stop stop-color="#272727"/>
<stop offset="1" stop-color="#828282"/>
</linearGradient>
<linearGradient id="paint2_linear" x1="29.2802" y1="34.0413" x2="32.7278" y2="35.1892" gradientUnits="userSpaceOnUse">
<stop stop-color="#272727"/>
<stop offset="1" stop-color="#828282"/>
</linearGradient>
<linearGradient id="paint3_linear" x1="41.8563" y1="28.4749" x2="41.8563" y2="40.8747" gradientUnits="userSpaceOnUse">
<stop stop-color="#272727"/>
<stop offset="1" stop-color="#828282"/>
</linearGradient>
<linearGradient id="paint4_linear" x1="20.0595" y1="28.4749" x2="20.0595" y2="40.8747" gradientUnits="userSpaceOnUse">
<stop stop-color="#272727"/>
<stop offset="1" stop-color="#828282"/>
</linearGradient>
<linearGradient id="paint5_linear" x1="52.7969" y1="7.38672" x2="52.7969" y2="11.0195" gradientUnits="userSpaceOnUse">
<stop stop-color="#272727"/>
<stop offset="1" stop-color="#828282"/>
</linearGradient>
<linearGradient id="paint6_linear" x1="45.5312" y1="7.38672" x2="45.5312" y2="11.0195" gradientUnits="userSpaceOnUse">
<stop stop-color="#272727"/>
<stop offset="1" stop-color="#828282"/>
</linearGradient>
<linearGradient id="paint7_linear" x1="38.2656" y1="7.38672" x2="38.2656" y2="11.0195" gradientUnits="userSpaceOnUse">
<stop stop-color="#272727"/>
<stop offset="1" stop-color="#828282"/>
</linearGradient>
</defs>
</svg>
