<svg width="62" height="62" viewBox="0 0 62 62" fill="none" xmlns="http://www.w3.org/2000/svg">
<path d="M30.9999 3.63281C39.6001 3.63281 47.6861 7.73971 52.7966 14.5312H47.4188V18.1641H57.9867V7.26562H54.3539V10.6807C48.2808 3.66611 39.7025 0 30.9999 0C28.3866 0 25.7897 0.327316 23.2815 0.972988L24.1872 4.49113C26.3997 3.92162 28.6917 3.63281 30.9999 3.63281Z" fill="white" fill-opacity="0.9"/>
<path d="M30.9999 3.63281C39.6001 3.63281 47.6861 7.73971 52.7966 14.5312H47.4188V18.1641H57.9867V7.26562H54.3539V10.6807C48.2808 3.66611 39.7025 0 30.9999 0C28.3866 0 25.7897 0.327316 23.2815 0.972988L24.1872 4.49113C26.3997 3.92162 28.6917 3.63281 30.9999 3.63281Z" fill="url(#paint0_linear)"/>
<path d="M62 31.0001C62 28.3867 61.6727 25.7898 61.027 23.2817L57.5089 24.1874C58.0784 26.3998 58.3672 28.692 58.3672 31.0001C58.3672 39.6 54.2602 47.6862 47.4688 52.7969V47.4048H43.8359V57.9787H54.7344V54.3459H51.3292C58.2822 48.321 62 39.7708 62 31.0001Z" fill="white" fill-opacity="0.9"/>
<path d="M62 31.0001C62 28.3867 61.6727 25.7898 61.027 23.2817L57.5089 24.1874C58.0784 26.3998 58.3672 28.692 58.3672 31.0001C58.3672 39.6 54.2602 47.6862 47.4688 52.7969V47.4048H43.8359V57.9787H54.7344V54.3459H51.3292C58.2822 48.321 62 39.7708 62 31.0001Z" fill="url(#paint1_linear)"/>
<path d="M30.9999 58.3672C22.3995 58.3672 14.3137 54.2604 9.20316 47.4688H14.5882V43.8359H4.00098V54.7344H7.63379V51.3052C13.5043 58.094 21.9777 62 30.9999 62C33.6132 62 36.21 61.6727 38.7183 61.0271L37.8126 57.509C35.6001 58.0784 33.308 58.3672 30.9999 58.3672Z" fill="white" fill-opacity="0.9"/>
<path d="M30.9999 58.3672C22.3995 58.3672 14.3137 54.2604 9.20316 47.4688H14.5882V43.8359H4.00098V54.7344H7.63379V51.3052C13.5043 58.094 21.9777 62 30.9999 62C33.6132 62 36.21 61.6727 38.7183 61.0271L37.8126 57.509C35.6001 58.0784 33.308 58.3672 30.9999 58.3672Z" fill="url(#paint2_linear)"/>
<path d="M3.63281 31C3.63281 22.3995 7.73959 14.3138 14.5312 9.20327V14.5883H18.1641V3.99927H7.26562V7.63208H10.6969C3.90564 13.5038 0 21.9788 0 31C0 33.6135 0.327316 36.2103 0.972988 38.7184L4.49113 37.8128C3.92162 35.6004 3.63281 33.3082 3.63281 31Z" fill="white" fill-opacity="0.9"/>
<path d="M3.63281 31C3.63281 22.3995 7.73959 14.3138 14.5312 9.20327V14.5883H18.1641V3.99927H7.26562V7.63208H10.6969C3.90564 13.5038 0 21.9788 0 31C0 33.6135 0.327316 36.2103 0.972988 38.7184L4.49113 37.8128C3.92162 35.6004 3.63281 33.3082 3.63281 31Z" fill="url(#paint3_linear)"/>
<path d="M43.6666 32.0207C43.729 31.3437 43.7331 30.7002 43.6666 29.9793L47.8822 27.5453L42.433 18.107L38.1799 20.5624C37.6286 20.1815 37.0509 19.8464 36.4493 19.5591V14.6523H25.5509V19.5591C24.9493 19.8464 24.3715 20.1815 23.8203 20.5624L19.5671 18.107L14.1179 27.5453L18.3336 29.9793C18.2712 30.6563 18.2671 31.2998 18.3336 32.0207L14.1179 34.4547L19.5671 43.893L23.8203 41.4376C24.3715 41.8185 24.9493 42.1536 25.5509 42.4409V47.3477H36.4493V42.4409C37.0509 42.1536 37.6286 41.8185 38.1799 41.4376L42.433 43.893L47.8822 34.4547L43.6666 32.0207ZM39.9126 29.3473C40.1383 30.5721 40.1385 31.4264 39.9126 32.6527L39.68 33.9139L42.9198 35.7844L41.1034 38.9305L37.8349 37.0435L36.8587 37.8763C36.0113 38.5994 35.0577 39.1523 34.0245 39.5197L32.8165 39.9491V43.7148H29.1837V39.9491L27.9756 39.5197C26.9425 39.1523 25.9889 38.5995 25.1414 37.8763L24.1653 37.0435L20.8967 38.9305L19.0803 35.7844L22.3202 33.9139L22.0876 32.6527C21.8619 31.4279 21.8616 30.5736 22.0876 29.3473L22.3202 28.0861L19.0803 26.2156L20.8967 23.0694L24.1653 24.9565L25.1414 24.1237C25.9889 23.4006 26.9425 22.8477 27.9756 22.4804L29.1837 22.0511V18.2852H32.8165V22.0511L34.0245 22.4804C35.0577 22.8477 36.0113 23.4006 36.8587 24.1237L37.8349 24.9565L41.1034 23.0694L42.9198 26.2156L39.68 28.0861L39.9126 29.3473Z" fill="white" fill-opacity="0.9"/>
<path d="M43.6666 32.0207C43.729 31.3437 43.7331 30.7002 43.6666 29.9793L47.8822 27.5453L42.433 18.107L38.1799 20.5624C37.6286 20.1815 37.0509 19.8464 36.4493 19.5591V14.6523H25.5509V19.5591C24.9493 19.8464 24.3715 20.1815 23.8203 20.5624L19.5671 18.107L14.1179 27.5453L18.3336 29.9793C18.2712 30.6563 18.2671 31.2998 18.3336 32.0207L14.1179 34.4547L19.5671 43.893L23.8203 41.4376C24.3715 41.8185 24.9493 42.1536 25.5509 42.4409V47.3477H36.4493V42.4409C37.0509 42.1536 37.6286 41.8185 38.1799 41.4376L42.433 43.893L47.8822 34.4547L43.6666 32.0207ZM39.9126 29.3473C40.1383 30.5721 40.1385 31.4264 39.9126 32.6527L39.68 33.9139L42.9198 35.7844L41.1034 38.9305L37.8349 37.0435L36.8587 37.8763C36.0113 38.5994 35.0577 39.1523 34.0245 39.5197L32.8165 39.9491V43.7148H29.1837V39.9491L27.9756 39.5197C26.9425 39.1523 25.9889 38.5995 25.1414 37.8763L24.1653 37.0435L20.8967 38.9305L19.0803 35.7844L22.3202 33.9139L22.0876 32.6527C21.8619 31.4279 21.8616 30.5736 22.0876 29.3473L22.3202 28.0861L19.0803 26.2156L20.8967 23.0694L24.1653 24.9565L25.1414 24.1237C25.9889 23.4006 26.9425 22.8477 27.9756 22.4804L29.1837 22.0511V18.2852H32.8165V22.0511L34.0245 22.4804C35.0577 22.8477 36.0113 23.4006 36.8587 24.1237L37.8349 24.9565L41.1034 23.0694L42.9198 26.2156L39.68 28.0861L39.9126 29.3473Z" fill="url(#paint4_linear)"/>
<path d="M31 25.5508C27.9953 25.5508 25.5508 27.9953 25.5508 31C25.5508 34.0047 27.9953 36.4492 31 36.4492C34.0047 36.4492 36.4492 34.0047 36.4492 31C36.4492 27.9953 34.0047 25.5508 31 25.5508ZM31 32.8164C29.9984 32.8164 29.1836 32.0016 29.1836 31C29.1836 29.9984 29.9984 29.1836 31 29.1836C32.0016 29.1836 32.8164 29.9984 32.8164 31C32.8164 32.0016 32.0016 32.8164 31 32.8164Z" fill="white" fill-opacity="0.9"/>
<path d="M31 25.5508C27.9953 25.5508 25.5508 27.9953 25.5508 31C25.5508 34.0047 27.9953 36.4492 31 36.4492C34.0047 36.4492 36.4492 34.0047 36.4492 31C36.4492 27.9953 34.0047 25.5508 31 25.5508ZM31 32.8164C29.9984 32.8164 29.1836 32.0016 29.1836 31C29.1836 29.9984 29.9984 29.1836 31 29.1836C32.0016 29.1836 32.8164 29.9984 32.8164 31C32.8164 32.0016 32.0016 32.8164 31 32.8164Z" fill="url(#paint5_linear)"/>
<defs>
<linearGradient id="paint0_linear" x1="40.6341" y1="0" x2="40.6341" y2="18.1641" gradientUnits="userSpaceOnUse">
<stop stop-color="#272727"/>
<stop offset="1" stop-color="#828282"/>
</linearGradient>
<linearGradient id="paint1_linear" x1="52.918" y1="23.2817" x2="52.918" y2="57.9787" gradientUnits="userSpaceOnUse">
<stop stop-color="#272727"/>
<stop offset="1" stop-color="#828282"/>
</linearGradient>
<linearGradient id="paint2_linear" x1="21.3596" y1="43.8359" x2="21.3596" y2="62" gradientUnits="userSpaceOnUse">
<stop stop-color="#272727"/>
<stop offset="1" stop-color="#828282"/>
</linearGradient>
<linearGradient id="paint3_linear" x1="9.08203" y1="3.99927" x2="9.08203" y2="38.7184" gradientUnits="userSpaceOnUse">
<stop stop-color="#272727"/>
<stop offset="1" stop-color="#828282"/>
</linearGradient>
<linearGradient id="paint4_linear" x1="31.0001" y1="14.6523" x2="31.0001" y2="47.3477" gradientUnits="userSpaceOnUse">
<stop stop-color="#272727"/>
<stop offset="1" stop-color="#828282"/>
</linearGradient>
<linearGradient id="paint5_linear" x1="31" y1="25.5508" x2="31" y2="36.4492" gradientUnits="userSpaceOnUse">
<stop stop-color="#272727"/>
<stop offset="1" stop-color="#828282"/>
</linearGradient>
</defs>
</svg>
